<svg xmlns="http://www.w3.org/2000/svg" xmlns:xlink="http://www.w3.org/1999/xlink" width="323.41" height="391.89" viewBox="0 0 323.41 391.89">
  <defs>
    <clipPath id="clip-path">
      <rect id="Ret창ngulo_1" data-name="Ret창ngulo 1" width="323.41" height="391.89" transform="translate(164.443 40.819)" fill="none"/>
    </clipPath>
    <clipPath id="clip-path-2">
      <rect id="Ret창ngulo_2" data-name="Ret창ngulo 2" width="78.361" height="181.418" transform="translate(164.443 213.732)" fill="none"/>
    </clipPath>
  </defs>
  <g id="bg_oqueestudei" transform="translate(-214.443 -97.819)">
    <g id="bg_oqueestudei-2" data-name="bg_oqueestudei" transform="translate(50 57)">
      <g id="Grupo_1" data-name="Grupo 1" clip-path="url(#clip-path)">
        <path id="Caminho_1" data-name="Caminho 1" d="M415.275,36.6a86.623,86.623,0,0,1-118.7,29.617" fill="none" stroke="#009c84" stroke-linecap="round" stroke-miterlimit="10" stroke-width="73.2"/>
        <path id="Caminho_2" data-name="Caminho 2" d="M130.489,369.537A86.442,86.442,0,0,0,211.51,216.813" fill="none" stroke="#8eb740" stroke-linecap="round" stroke-miterlimit="10" stroke-width="73.2"/>
        <path id="Caminho_3" data-name="Caminho 3" d="M206.169,213.67A86.442,86.442,0,0,1,297.921,67.142" fill="none" stroke="#8eb740" stroke-linecap="round" stroke-miterlimit="10" stroke-width="73.2"/>
      </g>
    </g>
    <g id="Grupo_4" data-name="Grupo 4" transform="translate(50 57)">
      <g id="Grupo_3" data-name="Grupo 3" clip-path="url(#clip-path-2)">
        <path id="Caminho_4" data-name="Caminho 4" d="M168.8,316.466a6.08,6.08,0,0,0-12.153.436m-24.318.436a6.081,6.081,0,0,0,12.154-.436m6.082.436a6.08,6.08,0,0,0,12.153-.436m72.944,37.44a6.08,6.08,0,0,1-12.153-.436m-42.552.436a6.081,6.081,0,0,1-12.154-.436m54.7-.436a6.08,6.08,0,0,0-12.153.436m-24.317.436a6.08,6.08,0,0,0,12.153-.436m-24.31-.436a6.08,6.08,0,0,1,12.153.436m18.239.436a6.08,6.08,0,0,0,12.153-.436m12.161-.433a6.08,6.08,0,0,1,12.153.436m-48.624-.439a6.081,6.081,0,0,1,12.154.436M168.8,353.47a6.08,6.08,0,0,0-12.153.436m-24.318.436a6.081,6.081,0,0,0,12.154-.436m6.082.436a6.08,6.08,0,0,0,12.153-.436m72.944-18.938a6.08,6.08,0,0,0-12.153.436m-42.552-.436a6.081,6.081,0,0,0-12.154.436m54.7.436a6.08,6.08,0,0,1-12.153-.436m-24.317-.436a6.08,6.08,0,0,1,12.153.436m-24.31.436a6.08,6.08,0,0,0,12.153-.436m18.239-.436a6.08,6.08,0,0,1,12.153.436m12.161.437a6.08,6.08,0,0,0,12.153-.436m-48.624.435a6.081,6.081,0,0,0,12.154-.436m-36.467.436a6.08,6.08,0,0,1-12.153-.436m-24.318-.436a6.081,6.081,0,0,1,12.154.436m6.082-.436a6.08,6.08,0,0,1,12.153.436m-24.31.436a6.08,6.08,0,0,0,12.153-.436m85.1,36.568a6.08,6.08,0,0,0-12.153.436m-42.552-.436a6.081,6.081,0,0,0-12.154.436m54.7.436a6.08,6.08,0,0,1-12.153-.436m-24.317-.436a6.08,6.08,0,0,1,12.153.436m-24.31.436a6.08,6.08,0,0,0,12.153-.436m18.239-.436a6.08,6.08,0,0,1,12.153.436m12.161.436a6.08,6.08,0,0,0,12.153-.435m-48.624.435a6.081,6.081,0,0,0,12.154-.436m-36.467.436a6.08,6.08,0,0,1-12.153-.436m-24.318-.436a6.081,6.081,0,0,1,12.154.436m6.082-.436a6.08,6.08,0,0,1,12.153.436m-24.31.436a6.08,6.08,0,0,0,12.153-.436m-24.479-55.07a6.081,6.081,0,0,1-12.154-.436m-42.552.436a6.08,6.08,0,0,1-12.153-.436m91.342-.436a6.081,6.081,0,0,0-12.154.436m-24.486-.436a6.08,6.08,0,0,0-12.153.436m-24.317.436A6.08,6.08,0,0,0,89.61,316.9m-24.31-.436a6.08,6.08,0,0,1,12.153.436m18.239.436a6.08,6.08,0,0,0,12.153-.436M120,316.47a6.08,6.08,0,0,1,12.153.435m-48.623-.439a6.08,6.08,0,0,1,12.153.436m-36.466-.436a6.08,6.08,0,0,0-12.153.436m-24.318.436A6.08,6.08,0,0,0,34.9,316.9m-24.31-.436a6.08,6.08,0,0,1,12.153.436m-18.23.436a6.08,6.08,0,0,0,12.152-.436m24.317.436a6.08,6.08,0,0,0,12.153-.436m-24.31-.436a6.081,6.081,0,0,1,12.154.436m85.1,37.44a6.081,6.081,0,0,1-12.154-.436m-42.552.436a6.08,6.08,0,0,1-12.153-.436m91.342-.436a6.081,6.081,0,0,0-12.154.436m-24.486-.436a6.08,6.08,0,0,0-12.153.436m-24.317.436a6.08,6.08,0,0,0,12.153-.436M65.3,353.47a6.08,6.08,0,0,1,12.153.436m18.239.436a6.08,6.08,0,0,0,12.153-.436m12.16-.433a6.08,6.08,0,0,1,12.153.436m-48.623-.439a6.08,6.08,0,0,1,12.153.436m-36.466-.436a6.08,6.08,0,0,0-12.153.436m-24.318.436a6.08,6.08,0,0,0,12.153-.436m-24.31-.436a6.08,6.08,0,0,1,12.153.436m-18.23.436a6.08,6.08,0,0,0,12.152-.436m24.317.436a6.08,6.08,0,0,0,12.153-.436m-24.31-.436a6.081,6.081,0,0,1,12.154.436m85.1-18.938a6.081,6.081,0,0,0-12.154.436m-42.552-.436a6.08,6.08,0,0,0-12.153.436m54.7.436a6.08,6.08,0,0,1-12.153-.436m-24.317-.436a6.08,6.08,0,0,1,12.153.436m-24.31.436a6.08,6.08,0,0,0,12.153-.436m18.239-.436a6.08,6.08,0,0,1,12.153.436m12.16.437a6.08,6.08,0,0,0,12.153-.436m-48.623.435a6.08,6.08,0,0,0,12.153-.436m-36.466.436a6.08,6.08,0,0,1-12.153-.436m-24.318-.436A6.08,6.08,0,0,1,34.9,335.4m-24.31.436a6.08,6.08,0,0,0,12.153-.436m-18.23-.436a6.08,6.08,0,0,1,12.152.436m24.317-.436a6.08,6.08,0,0,1,12.153.436m-24.31.436a6.081,6.081,0,0,0,12.154-.436m85.1,36.568a6.081,6.081,0,0,0-12.154.436m-42.552-.436a6.08,6.08,0,0,0-12.153.436m54.7.436a6.08,6.08,0,0,1-12.153-.436m-24.317-.436a6.08,6.08,0,0,1,12.153.436m-24.31.436a6.08,6.08,0,0,0,12.153-.436m18.239-.436a6.08,6.08,0,0,1,12.153.436m12.16.436a6.08,6.08,0,0,0,12.153-.435m-48.623.435a6.08,6.08,0,0,0,12.153-.436m-36.466.436a6.08,6.08,0,0,1-12.153-.436m-24.318-.436a6.08,6.08,0,0,1,12.153.436m-24.31.436a6.08,6.08,0,0,0,12.153-.436m-18.23-.436a6.08,6.08,0,0,1,12.152.436m24.317-.436a6.08,6.08,0,0,1,12.153.436m-24.31.436a6.081,6.081,0,0,0,12.154-.436M232.71,242.153a6.081,6.081,0,0,1-12.154-.436M178,242.153a6.08,6.08,0,0,1-12.153-.436m54.7-.435a6.08,6.08,0,0,0-12.153.435m-24.318.436a6.081,6.081,0,0,0,12.154-.436m-24.31-.435a6.08,6.08,0,0,1,12.153.435m18.239.436a6.08,6.08,0,0,0,12.153-.436m12.16-.432a6.08,6.08,0,0,1,12.153.436m-48.623-.439a6.08,6.08,0,0,1,12.153.435m-36.467-.435a6.08,6.08,0,0,0-12.153.435m-24.317.436a6.08,6.08,0,0,0,12.153-.436m6.082.436a6.08,6.08,0,0,0,12.153-.436m72.945,37.44a6.081,6.081,0,0,1-12.154-.436M178,279.157a6.08,6.08,0,0,1-12.153-.436m54.7-.436a6.08,6.08,0,0,0-12.153.436m-24.318.436a6.081,6.081,0,0,0,12.154-.436m-24.31-.436a6.08,6.08,0,0,1,12.153.436m18.239.436a6.08,6.08,0,0,0,12.153-.436m12.16-.432a6.08,6.08,0,0,1,12.153.435m-48.623-.439a6.08,6.08,0,0,1,12.153.436m-36.467-.436a6.08,6.08,0,0,0-12.153.436m-24.317.436a6.08,6.08,0,0,0,12.153-.436m6.082.436a6.08,6.08,0,0,0,12.153-.436m72.945-18.937a6.081,6.081,0,0,0-12.154.435M178,259.784a6.08,6.08,0,0,0-12.153.435m54.7.436a6.08,6.08,0,0,1-12.153-.436m-24.318-.435a6.081,6.081,0,0,1,12.154.435m-24.31.436a6.08,6.08,0,0,0,12.153-.436m18.239-.435a6.08,6.08,0,0,1,12.153.435m12.16.437a6.08,6.08,0,0,0,12.153-.436m-48.623.435a6.08,6.08,0,0,0,12.153-.436m-36.467.436a6.08,6.08,0,0,1-12.153-.436m-24.317-.435a6.08,6.08,0,0,1,12.153.435m6.082-.435a6.08,6.08,0,0,1,12.153.435m-24.31.436a6.081,6.081,0,0,0,12.154-.436m85.1,36.568a6.081,6.081,0,0,0-12.154.436M178,296.787a6.08,6.08,0,0,0-12.153.436m54.7.436a6.08,6.08,0,0,1-12.153-.436m-24.318-.436a6.081,6.081,0,0,1,12.154.436m-24.31.436a6.08,6.08,0,0,0,12.153-.436m18.239-.436a6.08,6.08,0,0,1,12.153.436m12.16.437a6.08,6.08,0,0,0,12.153-.436m-48.623.435a6.08,6.08,0,0,0,12.153-.436m-36.467.436a6.08,6.08,0,0,1-12.153-.436m-24.317-.436a6.08,6.08,0,0,1,12.153.436m6.082-.436a6.08,6.08,0,0,1,12.153.436m-24.31.436a6.081,6.081,0,0,0,12.154-.436m-24.48-55.07a6.08,6.08,0,0,1-12.153-.436m-42.552.436a6.08,6.08,0,0,1-12.153-.436m91.341-.435a6.08,6.08,0,0,0-12.153.435m-24.487-.435a6.08,6.08,0,0,0-12.153.435m-24.317.436a6.08,6.08,0,0,0,12.153-.436m-24.309-.435a6.08,6.08,0,0,1,12.153.435m18.238.436a6.08,6.08,0,0,0,12.153-.436m12.161-.432a6.08,6.08,0,0,1,12.153.436m-48.624-.439a6.081,6.081,0,0,1,12.154.435m-36.467-.435a6.08,6.08,0,0,0-12.153.435m-24.317.436a6.08,6.08,0,0,0,12.153-.436m-24.31-.435a6.08,6.08,0,0,1,12.153.435m-18.231.436a6.08,6.08,0,0,0,12.153-.436m24.317.436a6.08,6.08,0,0,0,12.153-.436m-24.31-.435a6.08,6.08,0,0,1,12.153.435m85.1,37.44a6.08,6.08,0,0,1-12.153-.436m-42.552.436a6.08,6.08,0,0,1-12.153-.436m91.341-.436a6.08,6.08,0,0,0-12.153.436m-24.487-.436a6.08,6.08,0,0,0-12.153.436m-24.317.436a6.08,6.08,0,0,0,12.153-.436m-24.309-.436a6.08,6.08,0,0,1,12.153.436m18.238.436a6.08,6.08,0,0,0,12.153-.436m12.161-.432a6.08,6.08,0,0,1,12.153.435m-48.624-.439a6.081,6.081,0,0,1,12.154.436m-36.467-.436a6.08,6.08,0,0,0-12.153.436m-24.317.436a6.08,6.08,0,0,0,12.153-.436m-24.31-.436a6.08,6.08,0,0,1,12.153.436m-18.231.436a6.08,6.08,0,0,0,12.153-.436m24.317.436a6.08,6.08,0,0,0,12.153-.436m-24.31-.436a6.08,6.08,0,0,1,12.153.436m85.1-18.937a6.08,6.08,0,0,0-12.153.435m-42.552-.435a6.08,6.08,0,0,0-12.153.435m54.7.436a6.08,6.08,0,0,1-12.153-.436M74.5,259.784a6.08,6.08,0,0,1,12.153.435m-24.309.436a6.08,6.08,0,0,0,12.153-.436m18.238-.435a6.08,6.08,0,0,1,12.153.435m12.161.437a6.08,6.08,0,0,0,12.153-.436m-48.624.435a6.081,6.081,0,0,0,12.154-.436m-36.467.436a6.08,6.08,0,0,1-12.153-.436M19.8,259.784a6.08,6.08,0,0,1,12.153.435m-24.31.436a6.08,6.08,0,0,0,12.153-.436m-18.231-.435a6.08,6.08,0,0,1,12.153.435m24.317-.435a6.08,6.08,0,0,1,12.153.435m-24.31.436a6.08,6.08,0,0,0,12.153-.436m85.1,36.568a6.08,6.08,0,0,0-12.153.436m-42.552-.436a6.08,6.08,0,0,0-12.153.436m54.7.436a6.08,6.08,0,0,1-12.153-.436M74.5,296.787a6.08,6.08,0,0,1,12.153.436m-24.309.436a6.08,6.08,0,0,0,12.153-.436m18.238-.436a6.08,6.08,0,0,1,12.153.436m12.161.437a6.08,6.08,0,0,0,12.153-.436m-48.624.435a6.081,6.081,0,0,0,12.154-.436m-36.467.436a6.08,6.08,0,0,1-12.153-.436M19.8,296.787a6.08,6.08,0,0,1,12.153.436m-24.31.436a6.08,6.08,0,0,0,12.153-.436m-18.231-.436a6.08,6.08,0,0,1,12.153.436m24.317-.436a6.08,6.08,0,0,1,12.153.436m-24.31.436a6.08,6.08,0,0,0,12.153-.436" fill="none" stroke="#8eb740" stroke-linecap="round" stroke-miterlimit="10" stroke-width="3.123"/>
        <path id="Caminho_5" data-name="Caminho 5" d="M235.665,317.339a6.081,6.081,0,0,1-12.154-.436m-42.552.436a6.08,6.08,0,0,1-12.153-.436m54.7-.436a6.08,6.08,0,0,0-12.153.436m-24.317.436a6.08,6.08,0,0,0,12.153-.436m-24.31-.436a6.08,6.08,0,0,1,12.153.436m18.239.436a6.08,6.08,0,0,0,12.153-.436m12.16-.433a6.08,6.08,0,0,1,12.153.436m-48.623-.439a6.08,6.08,0,0,1,12.153.436" fill="none" stroke="#8eb740" stroke-linecap="round" stroke-miterlimit="10" stroke-width="3.123"/>
        <path id="Caminho_6" data-name="Caminho 6" d="M168.8,167.414a6.08,6.08,0,0,0-12.153.436m-24.318.436a6.081,6.081,0,0,0,12.154-.436m6.082.436a6.08,6.08,0,0,0,12.153-.436m72.944,37.44a6.08,6.08,0,0,1-12.153-.436m-42.552.436a6.081,6.081,0,0,1-12.154-.436m54.7-.436a6.08,6.08,0,0,0-12.153.436m-24.317.436a6.08,6.08,0,0,0,12.153-.436m-24.31-.436a6.08,6.08,0,0,1,12.153.436m18.239.436a6.08,6.08,0,0,0,12.153-.436m12.161-.433a6.08,6.08,0,0,1,12.153.436m-48.624-.439a6.081,6.081,0,0,1,12.154.436m-36.467-.436a6.08,6.08,0,0,0-12.153.436m-24.318.436a6.081,6.081,0,0,0,12.154-.436m6.082.436a6.08,6.08,0,0,0,12.153-.436m72.944-18.938a6.08,6.08,0,0,0-12.153.436m-42.552-.436a6.081,6.081,0,0,0-12.154.436m54.7.436a6.08,6.08,0,0,1-12.153-.436m-24.317-.436a6.08,6.08,0,0,1,12.153.436m-24.31.436a6.08,6.08,0,0,0,12.153-.436m18.239-.436a6.08,6.08,0,0,1,12.153.436m12.161.437a6.08,6.08,0,0,0,12.153-.436m-48.624.435a6.081,6.081,0,0,0,12.154-.436m-36.467.436a6.08,6.08,0,0,1-12.153-.436m-24.318-.436a6.081,6.081,0,0,1,12.154.436m6.082-.436a6.08,6.08,0,0,1,12.153.436m-24.31.436a6.08,6.08,0,0,0,12.153-.436m85.1,36.568a6.08,6.08,0,0,0-12.153.436m-42.552-.436a6.081,6.081,0,0,0-12.154.436m54.7.436a6.08,6.08,0,0,1-12.153-.436m-24.317-.436a6.08,6.08,0,0,1,12.153.436m-24.31.436a6.08,6.08,0,0,0,12.153-.436m18.239-.436a6.08,6.08,0,0,1,12.153.436m12.161.436a6.08,6.08,0,0,0,12.153-.435m-48.624.435a6.081,6.081,0,0,0,12.154-.436m-36.467.436a6.08,6.08,0,0,1-12.153-.436m-24.318-.436a6.081,6.081,0,0,1,12.154.436m6.082-.436a6.08,6.08,0,0,1,12.153.436m-24.31.436a6.08,6.08,0,0,0,12.153-.436m-24.479-55.07a6.081,6.081,0,0,1-12.154-.436m-42.552.436a6.08,6.08,0,0,1-12.153-.436m91.342-.436a6.081,6.081,0,0,0-12.154.436m-24.486-.436a6.08,6.08,0,0,0-12.153.436m-24.317.436a6.08,6.08,0,0,0,12.153-.436m-24.31-.436a6.08,6.08,0,0,1,12.153.436m18.239.436a6.08,6.08,0,0,0,12.153-.436m12.16-.432a6.08,6.08,0,0,1,12.153.435m-48.623-.439a6.08,6.08,0,0,1,12.153.436m-36.466-.436a6.08,6.08,0,0,0-12.153.436m-24.318.436A6.08,6.08,0,0,0,34.9,167.85m-24.31-.436a6.08,6.08,0,0,1,12.153.436m-18.23.436a6.08,6.08,0,0,0,12.152-.436m24.317.436a6.08,6.08,0,0,0,12.153-.436m-24.31-.436a6.081,6.081,0,0,1,12.154.436m85.1,37.44a6.081,6.081,0,0,1-12.154-.436m-42.552.436a6.08,6.08,0,0,1-12.153-.436m91.342-.436a6.081,6.081,0,0,0-12.154.436m-24.486-.436a6.08,6.08,0,0,0-12.153.436m-24.317.436a6.08,6.08,0,0,0,12.153-.436m-24.31-.436a6.08,6.08,0,0,1,12.153.436m18.239.436a6.08,6.08,0,0,0,12.153-.436m12.16-.433a6.08,6.08,0,0,1,12.153.436m-48.623-.439a6.08,6.08,0,0,1,12.153.436m-36.466-.436a6.08,6.08,0,0,0-12.153.436m-24.318.436a6.08,6.08,0,0,0,12.153-.436m-24.31-.436a6.08,6.08,0,0,1,12.153.436m-18.23.436a6.08,6.08,0,0,0,12.152-.436m24.317.436a6.08,6.08,0,0,0,12.153-.436m-24.31-.436a6.081,6.081,0,0,1,12.154.436m85.1-18.938a6.081,6.081,0,0,0-12.154.436m-42.552-.436a6.08,6.08,0,0,0-12.153.436m54.7.436a6.08,6.08,0,0,1-12.153-.436m-24.317-.436a6.08,6.08,0,0,1,12.153.436m-24.31.436a6.08,6.08,0,0,0,12.153-.436m18.239-.436a6.08,6.08,0,0,1,12.153.436m12.16.437a6.08,6.08,0,0,0,12.153-.436m-48.623.435a6.08,6.08,0,0,0,12.153-.436m-36.466.436a6.08,6.08,0,0,1-12.153-.436m-24.318-.436a6.08,6.08,0,0,1,12.153.436m-24.31.436a6.08,6.08,0,0,0,12.153-.436m-18.23-.436a6.08,6.08,0,0,1,12.152.436m24.317-.436a6.08,6.08,0,0,1,12.153.436m-24.31.436a6.081,6.081,0,0,0,12.154-.436m85.1,36.568a6.081,6.081,0,0,0-12.154.436m-42.552-.436a6.08,6.08,0,0,0-12.153.436m54.7.436a6.08,6.08,0,0,1-12.153-.436m-24.317-.436a6.08,6.08,0,0,1,12.153.436m-24.31.436a6.08,6.08,0,0,0,12.153-.436m18.239-.436a6.08,6.08,0,0,1,12.153.436m12.16.436a6.08,6.08,0,0,0,12.153-.435m-48.623.435a6.08,6.08,0,0,0,12.153-.436m-36.466.436a6.08,6.08,0,0,1-12.153-.436m-24.318-.436a6.08,6.08,0,0,1,12.153.436m-24.31.436a6.08,6.08,0,0,0,12.153-.436m-18.23-.436a6.08,6.08,0,0,1,12.152.436m24.317-.436a6.08,6.08,0,0,1,12.153.436m-24.31.436a6.081,6.081,0,0,0,12.154-.436M232.71,93.1a6.081,6.081,0,0,1-12.154-.436M178,93.1a6.08,6.08,0,0,1-12.153-.436m54.7-.435a6.08,6.08,0,0,0-12.153.435m-24.318.436a6.081,6.081,0,0,0,12.154-.436m-24.31-.435a6.08,6.08,0,0,1,12.153.435m18.239.436a6.08,6.08,0,0,0,12.153-.436m12.16-.432a6.08,6.08,0,0,1,12.153.436m-48.623-.439a6.08,6.08,0,0,1,12.153.435m-36.467-.435a6.08,6.08,0,0,0-12.153.435m-24.317.436a6.08,6.08,0,0,0,12.153-.436m6.082.436a6.08,6.08,0,0,0,12.153-.436M232.71,130.1a6.081,6.081,0,0,1-12.154-.436M178,130.1a6.08,6.08,0,0,1-12.153-.436m54.7-.436a6.08,6.08,0,0,0-12.153.436m-24.318.436a6.081,6.081,0,0,0,12.154-.436m-24.31-.436a6.08,6.08,0,0,1,12.153.436m18.239.436a6.08,6.08,0,0,0,12.153-.436m12.16-.432a6.08,6.08,0,0,1,12.153.435m-48.623-.439a6.08,6.08,0,0,1,12.153.436m-36.467-.436a6.08,6.08,0,0,0-12.153.436m-24.317.436a6.08,6.08,0,0,0,12.153-.436m6.082.436a6.08,6.08,0,0,0,12.153-.436m72.945-18.937a6.081,6.081,0,0,0-12.154.435M178,110.732a6.08,6.08,0,0,0-12.153.435m54.7.436a6.08,6.08,0,0,1-12.153-.436m-24.318-.435a6.081,6.081,0,0,1,12.154.435m-24.31.436a6.08,6.08,0,0,0,12.153-.436m18.239-.435a6.08,6.08,0,0,1,12.153.435m12.16.437a6.08,6.08,0,0,0,12.153-.436m-48.623.435a6.08,6.08,0,0,0,12.153-.436m-36.467.436a6.08,6.08,0,0,1-12.153-.436m-24.317-.435a6.08,6.08,0,0,1,12.153.435m6.082-.435a6.08,6.08,0,0,1,12.153.435m-24.31.436a6.081,6.081,0,0,0,12.154-.436m85.1,36.568a6.081,6.081,0,0,0-12.154.436M178,147.735a6.08,6.08,0,0,0-12.153.436m54.7.436a6.08,6.08,0,0,1-12.153-.436m-24.318-.436a6.081,6.081,0,0,1,12.154.436m-24.31.436a6.08,6.08,0,0,0,12.153-.436m18.239-.436a6.08,6.08,0,0,1,12.153.436m12.16.437a6.08,6.08,0,0,0,12.153-.436m-48.623.435a6.08,6.08,0,0,0,12.153-.436m-36.467.436a6.08,6.08,0,0,1-12.153-.436m-24.317-.436a6.08,6.08,0,0,1,12.153.436m6.082-.436a6.08,6.08,0,0,1,12.153.436m-24.31.436a6.081,6.081,0,0,0,12.154-.436M123.129,93.1a6.08,6.08,0,0,1-12.153-.436M68.424,93.1a6.08,6.08,0,0,1-12.153-.436m91.341-.435a6.08,6.08,0,0,0-12.153.435m-24.487-.435a6.08,6.08,0,0,0-12.153.435M74.5,93.1a6.08,6.08,0,0,0,12.153-.436M62.346,92.23a6.08,6.08,0,0,1,12.153.435m18.238.436a6.08,6.08,0,0,0,12.153-.436m12.161-.432a6.08,6.08,0,0,1,12.153.436M80.58,92.23a6.081,6.081,0,0,1,12.154.435M56.267,92.23a6.08,6.08,0,0,0-12.153.435M19.8,93.1a6.08,6.08,0,0,0,12.153-.436M7.64,92.23a6.08,6.08,0,0,1,12.153.435M1.562,93.1a6.08,6.08,0,0,0,12.153-.436m24.317.436a6.08,6.08,0,0,0,12.153-.436m-24.31-.435a6.08,6.08,0,0,1,12.153.435m85.1,37.44a6.08,6.08,0,0,1-12.153-.436m-42.552.436a6.08,6.08,0,0,1-12.153-.436m91.341-.436a6.08,6.08,0,0,0-12.153.436m-24.487-.436a6.08,6.08,0,0,0-12.153.436M74.5,130.1a6.08,6.08,0,0,0,12.153-.436m-24.309-.436a6.08,6.08,0,0,1,12.153.436m18.238.436a6.08,6.08,0,0,0,12.153-.436m12.161-.432a6.08,6.08,0,0,1,12.153.435m-48.624-.439a6.081,6.081,0,0,1,12.154.436m-36.467-.436a6.08,6.08,0,0,0-12.153.436M19.8,130.1a6.08,6.08,0,0,0,12.153-.436m-24.31-.436a6.08,6.08,0,0,1,12.153.436M1.562,130.1a6.08,6.08,0,0,0,12.153-.436m24.317.436a6.08,6.08,0,0,0,12.153-.436m-24.31-.436a6.08,6.08,0,0,1,12.153.436m85.1-18.937a6.08,6.08,0,0,0-12.153.435m-42.552-.435a6.08,6.08,0,0,0-12.153.435m54.7.436a6.08,6.08,0,0,1-12.153-.436M74.5,110.732a6.08,6.08,0,0,1,12.153.435m-24.309.436a6.08,6.08,0,0,0,12.153-.436m18.238-.435a6.08,6.08,0,0,1,12.153.435m12.161.437a6.08,6.08,0,0,0,12.153-.436M80.58,111.6a6.081,6.081,0,0,0,12.154-.436m-36.467.436a6.08,6.08,0,0,1-12.153-.436M19.8,110.732a6.08,6.08,0,0,1,12.153.435M7.64,111.6a6.08,6.08,0,0,0,12.153-.436m-18.231-.435a6.08,6.08,0,0,1,12.153.435m24.317-.435a6.08,6.08,0,0,1,12.153.435m-24.31.436a6.08,6.08,0,0,0,12.153-.436m85.1,36.568a6.08,6.08,0,0,0-12.153.436m-42.552-.436a6.08,6.08,0,0,0-12.153.436m54.7.436a6.08,6.08,0,0,1-12.153-.436M74.5,147.735a6.08,6.08,0,0,1,12.153.436m-24.309.436a6.08,6.08,0,0,0,12.153-.436m18.238-.436a6.08,6.08,0,0,1,12.153.436m12.161.437a6.08,6.08,0,0,0,12.153-.436m-48.624.435a6.081,6.081,0,0,0,12.154-.436m-36.467.436a6.08,6.08,0,0,1-12.153-.436M19.8,147.735a6.08,6.08,0,0,1,12.153.436m-24.31.436a6.08,6.08,0,0,0,12.153-.436m-18.231-.436a6.08,6.08,0,0,1,12.153.436m24.317-.436a6.08,6.08,0,0,1,12.153.436m-24.31.436a6.08,6.08,0,0,0,12.153-.436" fill="none" stroke="#8eb740" stroke-linecap="round" stroke-miterlimit="10" stroke-width="3.123"/>
        <path id="Caminho_7" data-name="Caminho 7" d="M235.665,168.286a6.081,6.081,0,0,1-12.154-.436m-42.552.436a6.08,6.08,0,0,1-12.153-.436m54.7-.436a6.08,6.08,0,0,0-12.153.436m-24.317.436a6.08,6.08,0,0,0,12.153-.436m-24.31-.436a6.08,6.08,0,0,1,12.153.436m18.239.436a6.08,6.08,0,0,0,12.153-.436m12.16-.433a6.08,6.08,0,0,1,12.153.436m-48.623-.439a6.08,6.08,0,0,1,12.153.436" fill="none" stroke="#8eb740" stroke-linecap="round" stroke-miterlimit="10" stroke-width="3.123"/>
      </g>
    </g>
  </g>
</svg>
