<svg xmlns="http://www.w3.org/2000/svg" xmlns:xlink="http://www.w3.org/1999/xlink" width="388.341" height="269.611" viewBox="0 0 388.341 269.611">
  <defs>
    <clipPath id="clip-path">
      <path id="Caminho_1096" data-name="Caminho 1096" d="M0,0H388.341V-269.611H0Z" fill="none"/>
    </clipPath>
  </defs>
  <g id="marcara_01" transform="translate(0 269.611)">
    <g id="Grupo_2067" data-name="Grupo 2067" clip-path="url(#clip-path)">
      <g id="Grupo_2059" data-name="Grupo 2059" transform="translate(192.358 -129.652)">
        <path id="Caminho_1088" data-name="Caminho 1088" d="M0,0C28.583,0,77.252-17.926,77.252-68.945c0-52.395-48.283-71.012-77.252-71.012s-28.194,6.9-57.551,6.9-29.744-6.9-57.555-6.9-77.252,18.617-77.252,71.012C-192.358-17.926-143.3,0-115.106,0s28.2-6.895,57.167-6.895S-28.583,0,0,0" fill="#c6eef2"/>
      </g>
      <g id="Grupo_2060" data-name="Grupo 2060" transform="translate(311.089 -129.652)">
        <path id="Caminho_1089" data-name="Caminho 1089" d="M0,0C28.583,0,77.252-17.926,77.252-68.945c0-52.395-48.283-71.012-77.252-71.012s-28.194,6.9-57.551,6.9-29.744-6.9-57.555-6.9-77.252,18.617-77.252,71.012C-192.358-17.926-143.3,0-115.106,0s28.2-6.895,57.167-6.895S-28.583,0,0,0" fill="#c6eef2"/>
      </g>
      <g id="Grupo_2061" data-name="Grupo 2061" transform="translate(192.358)">
        <path id="Caminho_1090" data-name="Caminho 1090" d="M0,0C28.583,0,77.252-17.926,77.252-68.945c0-52.395-48.283-71.012-77.252-71.012s-28.194,6.9-57.551,6.9-29.744-6.9-57.555-6.9-77.252,18.617-77.252,71.012C-192.358-17.926-143.3,0-115.106,0s28.2-6.895,57.167-6.895S-28.583,0,0,0" fill="#c6eef2"/>
      </g>
      <g id="Grupo_2062" data-name="Grupo 2062" transform="translate(311.089)">
        <path id="Caminho_1091" data-name="Caminho 1091" d="M0,0C28.583,0,77.252-17.926,77.252-68.945c0-52.395-48.283-71.012-77.252-71.012s-28.194,6.9-57.551,6.9-29.744-6.9-57.555-6.9-77.252,18.617-77.252,71.012C-192.358-17.926-143.3,0-115.106,0s28.2-6.895,57.167-6.895S-28.583,0,0,0" fill="#c6eef2"/>
      </g>
      <g id="Grupo_2063" data-name="Grupo 2063" transform="translate(139.957 -192.358)">
        <path id="Caminho_1092" data-name="Caminho 1092" d="M0,0C0-28.583-17.926-77.252-68.945-77.252c-52.395,0-71.012,48.283-71.012,77.252s6.9,28.194,6.9,57.551-6.9,29.744-6.9,57.555,18.617,77.252,71.012,77.252C-17.926,192.358,0,143.3,0,115.106s-6.895-28.2-6.895-57.167S0,28.583,0,0" fill="#c6eef2"/>
      </g>
      <g id="Grupo_2064" data-name="Grupo 2064" transform="translate(258.688 -192.358)">
        <path id="Caminho_1093" data-name="Caminho 1093" d="M0,0C0-28.583-17.926-77.252-68.945-77.252c-52.395,0-71.012,48.283-71.012,77.252s6.9,28.194,6.9,57.551-6.9,29.744-6.9,57.555,18.617,77.252,71.012,77.252C-17.926,192.358,0,143.3,0,115.106s-6.895-28.2-6.895-57.167S0,28.583,0,0" fill="#c6eef2"/>
      </g>
      <g id="Grupo_2065" data-name="Grupo 2065" transform="translate(269.613 -192.358)">
        <path id="Caminho_1094" data-name="Caminho 1094" d="M0,0C0-28.583-17.926-77.252-68.945-77.252c-52.395,0-71.012,48.283-71.012,77.252s6.9,28.194,6.9,57.551-6.9,29.744-6.9,57.555,18.617,77.252,71.012,77.252C-17.926,192.358,0,143.3,0,115.106s-6.895-28.2-6.895-57.167S0,28.583,0,0" fill="#c6eef2"/>
      </g>
      <g id="Grupo_2066" data-name="Grupo 2066" transform="translate(388.344 -192.358)">
        <path id="Caminho_1095" data-name="Caminho 1095" d="M0,0C0-28.583-17.926-77.252-68.945-77.252c-52.395,0-71.012,48.283-71.012,77.252s6.9,28.194,6.9,57.551-6.9,29.744-6.9,57.555,18.617,77.252,71.012,77.252C-17.926,192.358,0,143.3,0,115.106s-6.895-28.2-6.895-57.167S0,28.583,0,0" fill="#c6eef2"/>
      </g>
    </g>
  </g>
</svg>
