<svg xmlns="http://www.w3.org/2000/svg" width="396.918" height="226.364" viewBox="0 0 396.918 226.364">
  <defs>
    <style>
      .cls-1 {
        fill: none;
        stroke: #707070;
      }
    </style>
  </defs>
  <path id="mascara_a" class="cls-1" d="M3471,1734c3,43-18,83-18,87s-3,49,9,55,64,24,94,24,123,9,136,0,117-9,122-9,72-23,5-62-86-78-76-91,65-41,0-53-139-4-146,0c-3.311,1.892-12.886,10.943-23.094,20.128C3562.931,1715,3551.216,1725,3547,1725,3539,1725,3471,1734,3471,1734Z" transform="translate(-3452.193 -1678.135)"/>
</svg>
