<svg xmlns="http://www.w3.org/2000/svg" width="473" height="293.001" viewBox="0 0 473 293.001">
  <path id="mascara_01" d="M-1563-901h-473v-293h473v293Zm-115.139-11.815c1.572.082,2.9.12,4.174.12,19.22,0,35.216-6.864,47.544-20.4,14.2-12.423,21.4-28.755,21.4-48.543,0-1.38-.038-2.782-.116-4.285.077-1.358.116-2.711.116-4.022a103.672,103.672,0,0,0-3.412-28.149,106.612,106.612,0,0,1-3.482-29.018,109.535,109.535,0,0,1,3.464-29.186,108.041,108.041,0,0,0,3.43-28.754c0-.967-.024-2.01-.07-3.1.047-1.155.07-2.181.07-3.138,0-18.761-6.127-34.568-18.212-46.981-12.449-15.721-29.992-24.031-50.733-24.031-1.284,0-2.665.039-4.222.119-1.39-.079-2.764-.119-4.085-.119a104.019,104.019,0,0,0-28.558,3.433c-7.014,1.7-14.265,3.468-28.993,3.468a110.294,110.294,0,0,1-29.657-3.52h-.006c-2.2-.524-4.474-1.066-6.906-1.544a71.15,71.15,0,0,0-16.3-1.835c-.42,0-.835.01-1.237.02h-.044l-.43.01c-1.045-.021-2.016-.031-2.971-.031-.594,0-1.205.009-1.817.027-.681-.018-1.272-.027-1.808-.027a104.01,104.01,0,0,0-28.558,3.433c-7.013,1.7-14.264,3.467-28.992,3.467a110.245,110.245,0,0,1-29.651-3.52,103.066,103.066,0,0,0-27.9-3.38c-.4,0-.828,0-1.262.013l-.366-.006h-.015c-.159,0-.339-.007-.519-.007-18.743,0-34.738,5.494-47.542,16.328-12.568,9.091-27.549,25.957-27.549,54.684,0,.945.023,1.947.072,3.152-.05,1.092-.075,2.131-.075,3.088,0,14.437,1.844,21.616,3.627,28.559,1.8,7.014,3.664,14.266,3.664,28.992a104.688,104.688,0,0,1-3.719,29.651,97.878,97.878,0,0,0-3.572,27.9c0,1.263.042,2.589.126,3.939-.083,1.516-.123,2.945-.123,4.368,0,31.924,18.934,49.032,34.817,57.762,11.464,7.421,25.014,11.183,40.273,11.183.164,0,.331,0,.478-.006s.265-.005.4-.006c.448.008.88.013,1.285.013a103.664,103.664,0,0,0,28.148-3.413,106.6,106.6,0,0,1,29.019-3.483,109.515,109.515,0,0,1,29.186,3.465A108.025,108.025,0,0,0-1801-912.695c.507,0,1.057-.008,1.782-.025.644.017,1.264.025,1.843.025.931,0,1.887-.01,3.009-.031l.522.012h.005c.374.009.761.018,1.146.018a71.227,71.227,0,0,0,15.192-1.591c2.991-.547,5.674-1.195,8.269-1.821a106.612,106.612,0,0,1,29.024-3.484,109.515,109.515,0,0,1,29.187,3.465,108.03,108.03,0,0,0,28.753,3.431C-1680.935-912.695-1679.544-912.735-1678.139-912.814Z" transform="translate(2036 1194)"/>
</svg>
