<svg xmlns="http://www.w3.org/2000/svg" xmlns:xlink="http://www.w3.org/1999/xlink" width="38.643" height="38.643" viewBox="0 0 38.643 38.643">
  <defs>
    <clipPath id="clip-path">
      <path id="Caminho_1048" data-name="Caminho 1048" d="M0,0H38.643V-38.643H0Z" fill="none"/>
    </clipPath>
    <clipPath id="clip-path-2">
      <path id="Caminho_1050" data-name="Caminho 1050" d="M13.5-30.6c-1.659,1.3.178,3.555.474,4.089h0c.3.534,1.9,2.593.948,3.97h0a1.733,1.733,0,0,1-1.917.956h0a6.722,6.722,0,0,0-.69-.007h0c-.18.009-.375.008-.575.008h0c-1.116,0-2.424-.008-2.625,1.651h0a29.734,29.734,0,0,0-.238,6.1h0c.179,2.074.579,2.888,1.6,2.963h0a14.6,14.6,0,0,0,2.755.014h0s2.993,3.541,7.141,3.6h0a18.36,18.36,0,0,0,4.9-.452h0c1.7-.464,3.949-1.607,3.949-3.094h0a2.4,2.4,0,0,0-.532-1.479h0a2.714,2.714,0,0,0,1.255-2.169h0a2.593,2.593,0,0,0-.969-1.943h0v-.05a2.59,2.59,0,0,0,.969-1.943h0a2.709,2.709,0,0,0-1.252-2.167h0a2.6,2.6,0,0,0,.69-2.036h0c-.219-1.679-2.3-2.776-4.636-2.451h0a5.679,5.679,0,0,0-2,.664h0c-.925.3-1.119.492-1.83.765h0c-.645.247-1.648.593-1.536-.178h0c.114-.77.884-2.577.528-4.118h0c-.6-2.592-2.311-3.507-3.913-3.507h0a4.13,4.13,0,0,0-2.487.81" fill="none"/>
    </clipPath>
    <linearGradient id="linear-gradient" x1="0.228" y1="0.5" x2="0.775" y2="0.5" gradientUnits="objectBoundingBox">
      <stop offset="0" stop-color="#39c6ca"/>
      <stop offset="0.1" stop-color="#3bc6ca"/>
      <stop offset="0.2" stop-color="#3dc7ca"/>
      <stop offset="0.3" stop-color="#3ec7ca"/>
      <stop offset="0.4" stop-color="#40c8ca"/>
      <stop offset="0.5" stop-color="#42c8ca"/>
      <stop offset="0.6" stop-color="#44c8ca"/>
      <stop offset="0.7" stop-color="#45c9ca"/>
      <stop offset="0.8" stop-color="#47c9ca"/>
      <stop offset="0.9" stop-color="#49c9ca"/>
      <stop offset="1" stop-color="#4bcaca"/>
    </linearGradient>
    <clipPath id="clip-path-3">
      <path id="Caminho_1053" data-name="Caminho 1053" d="M8.7-7.23H29.942V-31.414H8.7Z" fill="none"/>
    </clipPath>
  </defs>
  <g id="pv_avaliacao_positiva" transform="translate(0 38.643)">
    <g id="Grupo_2010" data-name="Grupo 2010" clip-path="url(#clip-path)">
      <g id="Grupo_2009" data-name="Grupo 2009" transform="translate(19.322)">
        <path id="Caminho_1047" data-name="Caminho 1047" d="M0,0A19.322,19.322,0,0,0,19.322-19.322,19.321,19.321,0,0,0,0-38.643,19.321,19.321,0,0,0-19.322-19.322,19.322,19.322,0,0,0,0,0" fill="#ffdf83"/>
      </g>
    </g>
    <g id="Grupo_2012" data-name="Grupo 2012" clip-path="url(#clip-path-2)">
      <g id="Grupo_2011" data-name="Grupo 2011" transform="translate(8.807 -19.333)">
        <path id="Caminho_1049" data-name="Caminho 1049" d="M-8.807-19.31H29.836V19.333H-8.807Z" fill="url(#linear-gradient)"/>
      </g>
    </g>
    <g id="Grupo_2015" data-name="Grupo 2015" clip-path="url(#clip-path-3)">
      <g id="Grupo_2013" data-name="Grupo 2013" transform="translate(20.073 -22.715)">
        <path id="Caminho_1051" data-name="Caminho 1051" d="M0,0A9.437,9.437,0,0,0,4.793-.338c.483-.167.275-.94-.213-.771A8.609,8.609,0,0,1,.213-.771a.409.409,0,0,0-.492.279A.4.4,0,0,0,0,0" fill="#2f8084"/>
      </g>
      <g id="Grupo_2014" data-name="Grupo 2014" transform="translate(12.287 -12.543)">
        <path id="Caminho_1052" data-name="Caminho 1052" d="M0,0A4.9,4.9,0,0,0,1.38,2.944a.4.4,0,0,0,.566-.566,3.95,3.95,0,0,1-.787-1.122A2.506,2.506,0,0,1,1.045.992C1,.883.967.773.935.661S.871.423.847.3.81.091.8,0A.41.41,0,0,0,.4-.4.4.4,0,0,0,0,0" fill="#2f8084"/>
      </g>
    </g>
  </g>
</svg>
