<svg xmlns="http://www.w3.org/2000/svg" xmlns:xlink="http://www.w3.org/1999/xlink" width="38.643" height="38.643" viewBox="0 0 38.643 38.643">
  <defs>
    <clipPath id="clip-path">
      <path id="Caminho_1055" data-name="Caminho 1055" d="M0,0H38.643V-38.643H0Z" fill="none"/>
    </clipPath>
    <clipPath id="clip-path-2">
      <path id="Caminho_1057" data-name="Caminho 1057" d="M19.014-28.223a2.135,2.135,0,0,0-.173-.228h0a1.748,1.748,0,0,0-2.644.025h0l-5.15,5.688A20.855,20.855,0,0,0,7.3-16.554h0a6.091,6.091,0,0,0-.156,3.665h0v0h0c2.43,5.017,7,5.88,13.275,4.8h0c.406-.07.611.188,1.03.447h0a3.6,3.6,0,0,0,2.146.453h0c2.359-.077,1.83-2.537,1.16-3.148h0a4.839,4.839,0,0,0-3.007-.712h0c-1.879-.082-1.844-2.066-1.551-2.661h0c1.045-2.117,2.5-2.2,6.48-6.192h0c3.986-4,3.02-5.954,2.121-6.589h0a1.97,1.97,0,0,0-1.6-.265h0a2.4,2.4,0,0,0-1.29-2.276h0a2.508,2.508,0,0,0-3.009.921h0a2.016,2.016,0,0,0-1.783-1.176h-.065c-.656,0-1.068.254-2.034,1.062" fill="none"/>
    </clipPath>
    <linearGradient id="linear-gradient" x1="0.289" y1="0.484" x2="0.663" y2="0.484" gradientUnits="objectBoundingBox">
      <stop offset="0" stop-color="#ffa33d"/>
      <stop offset="0.1" stop-color="#ffa33d"/>
      <stop offset="0.2" stop-color="#ffa33e"/>
      <stop offset="0.3" stop-color="#ffa23e"/>
      <stop offset="0.4" stop-color="#ffa13e"/>
      <stop offset="0.5" stop-color="#ff9f3e"/>
      <stop offset="0.6" stop-color="#ff9d3e"/>
      <stop offset="0.7" stop-color="#ff9b3e"/>
      <stop offset="0.8" stop-color="#ff983f"/>
      <stop offset="0.9" stop-color="#ff953f"/>
      <stop offset="1" stop-color="#ff913f"/>
    </linearGradient>
    <clipPath id="clip-path-3">
      <path id="Caminho_1067" data-name="Caminho 1067" d="M6.556-7.007H32.088v-24.63H6.556Z" fill="none"/>
    </clipPath>
  </defs>
  <g id="pv_avaliacao_medio" transform="translate(0 38.643)">
    <g id="Grupo_2018" data-name="Grupo 2018" clip-path="url(#clip-path)">
      <g id="Grupo_2017" data-name="Grupo 2017" transform="translate(19.322)">
        <path id="Caminho_1054" data-name="Caminho 1054" d="M0,0A19.322,19.322,0,0,0,19.322-19.322,19.321,19.321,0,0,0,0-38.643,19.321,19.321,0,0,0-19.322-19.322,19.322,19.322,0,0,0,0,0" fill="#ffdf83"/>
      </g>
    </g>
    <g id="Grupo_2020" data-name="Grupo 2020" clip-path="url(#clip-path-2)">
      <g id="Grupo_2019" data-name="Grupo 2019" transform="matrix(-0.812, -0.584, 0.584, -0.812, 28.025, -11.972)">
        <path id="Caminho_1056" data-name="Caminho 1056" d="M38.326,5.277,6.961,27.85-15.611-3.515,15.754-26.088Z" fill="url(#linear-gradient)"/>
      </g>
    </g>
    <g id="Grupo_2030" data-name="Grupo 2030" clip-path="url(#clip-path-3)">
      <g id="Grupo_2021" data-name="Grupo 2021" transform="translate(7.14 -25.772)">
        <path id="Caminho_1058" data-name="Caminho 1058" d="M0,0A.5.5,0,0,1-.471-.457a4.788,4.788,0,0,1,1.711-3.5C3.178-5.865,4.8-5.7,4.866-5.7a.5.5,0,0,1,.44.553.5.5,0,0,1-.553.441C4.707-4.71,3.511-4.79,1.941-3.246A3.882,3.882,0,0,0,.526-.53.5.5,0,0,1,.06,0Q.03,0,0,0" fill="#ff6a36"/>
      </g>
      <g id="Grupo_2022" data-name="Grupo 2022" transform="translate(9.005 -25.276)">
        <path id="Caminho_1059" data-name="Caminho 1059" d="M0,0A.5.5,0,0,1-.468-.431,3.433,3.433,0,0,1,.7-3.151a3.527,3.527,0,0,1,2.815-1.2.5.5,0,0,1,.419.57.5.5,0,0,1-.569.419,2.6,2.6,0,0,0-1.963.925A2.482,2.482,0,0,0,.524-.555.5.5,0,0,1,.086,0,.5.5,0,0,1,0,0" fill="#ff6a36"/>
      </g>
      <g id="Grupo_2023" data-name="Grupo 2023" transform="translate(26.882 -10.89)">
        <path id="Caminho_1060" data-name="Caminho 1060" d="M0,0A.5.5,0,0,1-.474-.523.5.5,0,0,1,.049-1C.092-1,1.294-1,2.757-2.641a3.883,3.883,0,0,0,1.233-2.8A.5.5,0,0,1,4.419-6a.5.5,0,0,1,.561.42A4.79,4.79,0,0,1,3.5-1.976C1.7.055.07,0,0,0H0" fill="#ff6a36"/>
      </g>
      <g id="Grupo_2024" data-name="Grupo 2024" transform="translate(26.264 -12.692)">
        <path id="Caminho_1061" data-name="Caminho 1061" d="M0,0H-.021A.5.5,0,0,1-.477-.542.5.5,0,0,1,.064-1a2.6,2.6,0,0,0,1.9-1.054,2.48,2.48,0,0,0,.756-1.937.5.5,0,0,1,.4-.58.5.5,0,0,1,.582.39,3.433,3.433,0,0,1-.991,2.792A3.573,3.573,0,0,1,0,0" fill="#ff6a36"/>
      </g>
      <g id="Grupo_2025" data-name="Grupo 2025" transform="translate(13.911 -20.024)">
        <path id="Caminho_1062" data-name="Caminho 1062" d="M0,0A9.281,9.281,0,0,1-.093,4.045a8.247,8.247,0,0,1-1.743,3.5A2.947,2.947,0,0,1-3.521,8.576a.48.48,0,0,0-.326.574.453.453,0,0,0,.541.343A4.877,4.877,0,0,0-.2,6.77,10.343,10.343,0,0,0,1.056,2.38,10.241,10.241,0,0,0,.868-.23C.748-.825-.12-.6,0,0" fill="#ff6a36"/>
      </g>
      <g id="Grupo_2026" data-name="Grupo 2026" transform="translate(14.981 -21.831)">
        <path id="Caminho_1063" data-name="Caminho 1063" d="M0,0A9.219,9.219,0,0,1,6.916,3.207c.429.516,1.262-.112.834-.627A10.3,10.3,0,0,0,.1-1a.537.537,0,0,0-.59.443A.526.526,0,0,0,0,0" fill="#ff6a36"/>
      </g>
      <g id="Grupo_2027" data-name="Grupo 2027" transform="translate(19.49 -20.903)">
        <path id="Caminho_1064" data-name="Caminho 1064" d="M0,0A7.359,7.359,0,0,0,3.8-7.284a.473.473,0,1,0-.943.06A6.359,6.359,0,0,1-.312-.946.518.518,0,0,0-.6-.312.473.473,0,0,0,0,0" fill="#ff6a36"/>
      </g>
      <g id="Grupo_2028" data-name="Grupo 2028" transform="translate(26.966 -26.853)">
        <path id="Caminho_1065" data-name="Caminho 1065" d="M0,0C.064,2.434-1.873,4.491-3.622,5.8a11.287,11.287,0,0,1-1.57.982c-.548.282-.113,1.167.436.884A12.686,12.686,0,0,0-1.717,5.443,9.5,9.5,0,0,0,.556,2.16,5.46,5.46,0,0,0,.944.044.5.5,0,0,0,.5-.477.49.49,0,0,0,0,0" fill="#ff6a36"/>
      </g>
      <g id="Grupo_2029" data-name="Grupo 2029" transform="translate(15.45 -22.082)">
        <path id="Caminho_1066" data-name="Caminho 1066" d="M0,0A6.46,6.46,0,0,0,3.957-6.08.421.421,0,1,0,3.115-6.1,5.582,5.582,0,0,1-.2-.853.454.454,0,0,0-.51-.32.422.422,0,0,0,0,0" fill="#ff6a36"/>
      </g>
    </g>
  </g>
</svg>
