<svg xmlns="http://www.w3.org/2000/svg" xmlns:xlink="http://www.w3.org/1999/xlink" width="27.283" height="33.603" viewBox="0 0 27.283 33.603">
  <defs>
    <clipPath id="clip-path">
      <rect id="Retângulo_458" data-name="Retângulo 458" width="27.283" height="33.603" transform="translate(0 0)" fill="none"/>
    </clipPath>
  </defs>
  <g id="pv_box_complementar" transform="translate(0 0)">
    <g id="Grupo_1274" data-name="Grupo 1274" clip-path="url(#clip-path)">
      <path id="Caminho_592" data-name="Caminho 592" d="M9.791,19.1a10.29,10.29,0,0,1,1.031-4.558q.117-.306.267-.606a6.4,6.4,0,0,1,1.235-1.683,10.326,10.326,0,0,1,7.752-3.587l6.715-.048A5.191,5.191,0,0,0,24.425,1.8,16.838,16.838,0,1,0,9.249,31.868l1.081.545A6.405,6.405,0,0,1,11.97,33.6a11.327,11.327,0,0,1,7.471-4.253A10.353,10.353,0,0,1,9.791,19.1" fill="#bd358a"/>
      <path id="Caminho_593" data-name="Caminho 593" d="M6.48,16.792A5.2,5.2,0,0,1,1.8,9.247a16.856,16.856,0,0,1,22.62-7.441,5.2,5.2,0,0,1-4.687,9.284,6.445,6.445,0,0,0-8.649,2.845A5.2,5.2,0,0,1,6.48,16.792" fill="#f36b2a"/>
    </g>
  </g>
</svg>
