<svg xmlns="http://www.w3.org/2000/svg" xmlns:xlink="http://www.w3.org/1999/xlink" width="18.264" height="7.091" viewBox="0 0 18.264 7.091">
  <defs>
    <clipPath id="clip-path">
      <path id="Caminho_456" data-name="Caminho 456" d="M0,0H18.264V-7.091H0Z" fill="none"/>
    </clipPath>
  </defs>
  <g id="pv_etapa" transform="translate(0 7.091)">
    <g id="Grupo_782" data-name="Grupo 782" clip-path="url(#clip-path)">
      <g id="Grupo_781" data-name="Grupo 781" transform="translate(17.759 -4.236)">
        <path id="Caminho_455" data-name="Caminho 455" d="M0,0A7.028,7.028,0,0,0-4.732-2.784a7.123,7.123,0,0,0-5.314,1.377c-.03.022-.042.056-.07.079-.047.033-.1.041-.149.078a2.174,2.174,0,0,1-3.056-.31,2.5,2.5,0,0,0-3.518-.358A2.5,2.5,0,0,0-17.2,1.6a7.162,7.162,0,0,0,5.565,2.636,7.141,7.141,0,0,0,4.5-1.594c.031-.021.066-.035.1-.058a2.159,2.159,0,0,1,1.609-.417,2.188,2.188,0,0,1,1.433.843,2.5,2.5,0,0,0,3.5.491A2.5,2.5,0,0,0,0,0" fill="#d74da6"/>
      </g>
    </g>
  </g>
</svg>
