<svg xmlns="http://www.w3.org/2000/svg" xmlns:xlink="http://www.w3.org/1999/xlink" width="65.764" height="19.069" viewBox="0 0 65.764 19.069">
  <defs>
    <clipPath id="clip-path">
      <path id="Caminho_454" data-name="Caminho 454" d="M0,0H65.764V-19.069H0Z" fill="none"/>
    </clipPath>
  </defs>
  <g id="pv_tit1" transform="translate(0 19.069)">
    <g id="Grupo_779" data-name="Grupo 779" clip-path="url(#clip-path)">
      <g id="Grupo_776" data-name="Grupo 776" transform="translate(43.002 -4.669)">
        <path id="Caminho_451" data-name="Caminho 451" d="M0,0A5.142,5.142,0,0,0,3.82-1.692a7.31,7.31,0,0,1,10.326-.5,5.154,5.154,0,0,0,7.28-.355,5.154,5.154,0,0,0-.356-7.28A17.5,17.5,0,0,0,8.375-14.379,17.5,17.5,0,0,0-3.816-8.616a5.153,5.153,0,0,0,.356,7.28A5.131,5.131,0,0,0,0,0" fill="#ffc734"/>
      </g>
      <g id="Grupo_777" data-name="Grupo 777" transform="translate(5.153 -4.669)">
        <path id="Caminho_452" data-name="Caminho 452" d="M0,0A5.142,5.142,0,0,0,3.82-1.692a7.31,7.31,0,0,1,10.326-.5,5.154,5.154,0,0,0,7.28-.355,5.154,5.154,0,0,0-.356-7.28A17.5,17.5,0,0,0,8.375-14.379,17.5,17.5,0,0,0-3.816-8.616a5.153,5.153,0,0,0,.356,7.28A5.131,5.131,0,0,0,0,0" fill="#d74da6"/>
      </g>
      <g id="Grupo_778" data-name="Grupo 778" transform="translate(24.077 -14.4)">
        <path id="Caminho_453" data-name="Caminho 453" d="M0,0A5.142,5.142,0,0,1,3.82,1.692,7.261,7.261,0,0,0,8.878,4.083,7.259,7.259,0,0,0,14.146,2.2,5.154,5.154,0,1,1,21.07,9.832,17.5,17.5,0,0,1,8.375,14.379,17.5,17.5,0,0,1-3.816,8.616a5.153,5.153,0,0,1,.356-7.28A5.131,5.131,0,0,1,0,0" fill="#ff7d3b"/>
      </g>
    </g>
  </g>
</svg>
