<svg xmlns="http://www.w3.org/2000/svg" xmlns:xlink="http://www.w3.org/1999/xlink" width="117.307" height="89.599" viewBox="0 0 117.307 89.599">
  <defs>
    <clipPath id="clip-path">
      <path id="Caminho_204" data-name="Caminho 204" d="M0,0H117.307V-89.6H0Z" fill="none"/>
    </clipPath>
    <clipPath id="clip-path-2">
      <rect id="Retângulo_4" data-name="Retângulo 4" width="166.197" height="183.466" transform="translate(-10.482 -144.499)" fill="none"/>
    </clipPath>
    <clipPath id="clip-path-3">
      <path id="Caminho_203" data-name="Caminho 203" d="M-10.482,38.967h166.2V-144.5h-166.2Z" fill="none"/>
    </clipPath>
  </defs>
  <g id="pv_texturaverde_1" transform="translate(0 89.599)">
    <g id="Grupo_216" data-name="Grupo 216" clip-path="url(#clip-path)">
      <g id="Grupo_215" data-name="Grupo 215" opacity="0.6">
        <g id="Grupo_214" data-name="Grupo 214">
          <g id="Grupo_213" data-name="Grupo 213" clip-path="url(#clip-path-2)">
            <g id="Grupo_212" data-name="Grupo 212" clip-path="url(#clip-path-3)">
              <g id="Grupo_197" data-name="Grupo 197" transform="translate(97.085 -86.682)">
                <path id="Caminho_188" data-name="Caminho 188" d="M0,0A6.4,6.4,0,1,0,8.738,2.382,6.4,6.4,0,0,0,0,0ZM-6.364,23.521a6.4,6.4,0,0,0-2.383,8.738A6.4,6.4,0,0,0-.009,34.641,6.4,6.4,0,0,0,2.373,25.9,6.4,6.4,0,0,0-6.364,23.521ZM-38.428,2.079a6.4,6.4,0,0,0-2.382,8.738A6.4,6.4,0,0,0-32.072,13.2,6.4,6.4,0,0,0-29.69,4.462a6.4,6.4,0,0,0-8.738-2.383m25.69,79.6a6.4,6.4,0,0,0,2.382-8.738,6.4,6.4,0,0,0-8.738-2.382A6.4,6.4,0,0,0-21.476,79.3a6.4,6.4,0,0,0,8.738,2.382M-27.66,55.576a6.4,6.4,0,0,0-2.382,8.738A6.4,6.4,0,0,0-21.3,66.7a6.4,6.4,0,0,0,2.382-8.738A6.4,6.4,0,0,0-27.66,55.576ZM-44.792,25.6a6.4,6.4,0,0,0-2.382,8.737,6.4,6.4,0,0,0,8.737,2.382,6.4,6.4,0,0,0,2.382-8.737A6.4,6.4,0,0,0-44.792,25.6Zm-8.566-14.988a6.4,6.4,0,0,0-2.382,8.738A6.4,6.4,0,0,0-47,21.733a6.4,6.4,0,0,0,2.382-8.738A6.4,6.4,0,0,0-53.358,10.613Zm2.2,38.509a6.4,6.4,0,0,0-2.382,8.738A6.4,6.4,0,0,0-44.8,60.242,6.4,6.4,0,0,0-42.419,51.5,6.4,6.4,0,0,0-51.157,49.122ZM-68.289,19.147a6.4,6.4,0,0,0-2.382,8.737,6.4,6.4,0,0,0,8.737,2.382,6.4,6.4,0,0,0,2.382-8.737A6.4,6.4,0,0,0-68.289,19.147ZM-76.855,4.159A6.4,6.4,0,0,0-79.237,12.9,6.4,6.4,0,0,0-70.5,15.279a6.4,6.4,0,0,0,2.382-8.738,6.4,6.4,0,0,0-8.737-2.382m19.334,68.484A6.4,6.4,0,0,0-59.9,81.381a6.4,6.4,0,0,0,8.737,2.382,6.4,6.4,0,0,0,2.382-8.737A6.4,6.4,0,0,0-57.521,72.643Zm-8.566-14.987a6.4,6.4,0,0,0-2.383,8.737,6.4,6.4,0,0,0,8.738,2.382,6.4,6.4,0,0,0,2.382-8.737A6.4,6.4,0,0,0-66.087,57.656ZM-83.22,27.68A6.4,6.4,0,0,0-85.6,36.418,6.4,6.4,0,0,0-76.864,38.8a6.4,6.4,0,0,0,2.382-8.738A6.4,6.4,0,0,0-83.22,27.68Z" fill="none" stroke="#83cb69" stroke-linecap="round" stroke-miterlimit="10" stroke-width="4.145"/>
              </g>
              <g id="Grupo_198" data-name="Grupo 198" transform="translate(105.651 -71.694)">
                <path id="Caminho_189" data-name="Caminho 189" d="M0,0A6.4,6.4,0,1,0,8.738,2.382,6.4,6.4,0,0,0,0,0Z" fill="none" stroke="#2ec3ca" stroke-linecap="round" stroke-miterlimit="10" stroke-width="4.145"/>
              </g>
              <g id="Grupo_199" data-name="Grupo 199" transform="translate(82.154 -78.148)">
                <path id="Caminho_190" data-name="Caminho 190" d="M0,0A6.4,6.4,0,1,0,8.737,2.382,6.4,6.4,0,0,0,0,0Z" fill="none" stroke="#27bc9f" stroke-linecap="round" stroke-miterlimit="10" stroke-width="4.145"/>
              </g>
              <g id="Grupo_200" data-name="Grupo 200" transform="translate(84.356 -39.639)">
                <path id="Caminho_191" data-name="Caminho 191" d="M0,0A6.4,6.4,0,1,0,8.737,2.382,6.4,6.4,0,0,0,0,0Z" fill="none" stroke="#2ec3ca" stroke-linecap="round" stroke-miterlimit="10" stroke-width="4.145"/>
              </g>
              <g id="Grupo_201" data-name="Grupo 201" transform="translate(54.494 -22.572)">
                <path id="Caminho_192" data-name="Caminho 192" d="M0,0A6.4,6.4,0,1,0,8.737,2.382,6.4,6.4,0,0,0,0,0Z" fill="none" stroke="#58c274" stroke-linecap="round" stroke-miterlimit="10" stroke-width="4.145"/>
              </g>
              <g id="Grupo_202" data-name="Grupo 202" transform="translate(37.362 -52.547)">
                <path id="Caminho_193" data-name="Caminho 193" d="M0,0A6.4,6.4,0,1,0,8.737,2.382,6.4,6.4,0,0,0,0,0Z" fill="none" stroke="#2ec3ca" stroke-linecap="round" stroke-miterlimit="10" stroke-width="4.145"/>
              </g>
              <g id="Grupo_203" data-name="Grupo 203" transform="translate(60.859 -46.093)">
                <path id="Caminho_194" data-name="Caminho 194" d="M0,0A6.4,6.4,0,1,0,8.737,2.382,6.4,6.4,0,0,0,0,0Z" fill="none" stroke="#27bc9f" stroke-linecap="round" stroke-miterlimit="10" stroke-width="4.145"/>
              </g>
              <g id="Grupo_204" data-name="Grupo 204" transform="translate(67.223 -69.614)">
                <path id="Caminho_195" data-name="Caminho 195" d="M0,0A6.4,6.4,0,1,0,8.737,2.382,6.4,6.4,0,0,0,0,0Z" fill="none" stroke="#58c274" stroke-linecap="round" stroke-miterlimit="10" stroke-width="4.145"/>
              </g>
              <g id="Grupo_205" data-name="Grupo 205" transform="translate(5.299 -73.989)">
                <path id="Caminho_196" data-name="Caminho 196" d="M0,0A6.4,6.4,0,1,0,8.738,2.382,6.4,6.4,0,0,0,0,0Z" fill="none" stroke="#9de2e7" stroke-linecap="round" stroke-miterlimit="10" stroke-width="4.145"/>
              </g>
              <g id="Grupo_206" data-name="Grupo 206" transform="translate(16.066 -20.492)">
                <path id="Caminho_197" data-name="Caminho 197" d="M0,0A6.4,6.4,0,1,0,8.738,2.382,6.4,6.4,0,0,0,0,0Z" fill="none" stroke="#b0e0ba" stroke-linecap="round" stroke-miterlimit="10" stroke-width="4.145"/>
              </g>
              <g id="Grupo_207" data-name="Grupo 207" transform="translate(22.431 -44.014)">
                <path id="Caminho_198" data-name="Caminho 198" d="M0,0A6.4,6.4,0,1,0,8.738,2.382,6.4,6.4,0,0,0,0,0Z" fill="none" stroke="#b0e0ba" stroke-linecap="round" stroke-miterlimit="10" stroke-width="4.145"/>
              </g>
              <g id="Grupo_208" data-name="Grupo 208" transform="translate(5.118 -26.742)">
                <path id="Caminho_199" data-name="Caminho 199" d="M0,0A6.4,6.4,0,0,0,8.738,2.382,6.4,6.4,0,0,0,11.12-6.355,6.4,6.4,0,0,0,2.382-8.737,6.4,6.4,0,0,0,0,0" fill="none" stroke="#9fe0d5" stroke-linecap="round" stroke-miterlimit="10" stroke-width="4.145"/>
              </g>
              <g id="Grupo_209" data-name="Grupo 209" transform="translate(75.789 -54.627)">
                <path id="Caminho_200" data-name="Caminho 200" d="M0,0A6.4,6.4,0,1,0,8.737,2.382,6.4,6.4,0,0,0,0,0Z" fill="none" stroke="#58c274" stroke-linecap="round" stroke-miterlimit="10" stroke-width="4.145"/>
              </g>
              <g id="Grupo_210" data-name="Grupo 210" transform="translate(99.286 -48.173)">
                <path id="Caminho_201" data-name="Caminho 201" d="M0,0A6.4,6.4,0,1,0,8.737,2.382,6.4,6.4,0,0,0,0,0Z" fill="none" stroke="#9de2e7" stroke-linecap="round" stroke-miterlimit="10" stroke-width="4.145"/>
              </g>
              <g id="Grupo_211" data-name="Grupo 211" transform="translate(92.922 -24.651)">
                <path id="Caminho_202" data-name="Caminho 202" d="M0,0A6.4,6.4,0,1,0,8.737,2.382,6.4,6.4,0,0,0,0,0Z" fill="none" stroke="#b0e0ba" stroke-linecap="round" stroke-miterlimit="10" stroke-width="4.145"/>
              </g>
            </g>
          </g>
        </g>
      </g>
    </g>
  </g>
</svg>
