<svg xmlns="http://www.w3.org/2000/svg" xmlns:xlink="http://www.w3.org/1999/xlink" width="86.03" height="34.994" viewBox="0 0 86.03 34.994">
  <defs>
    <clipPath id="clip-path">
      <rect id="Retângulo_477" data-name="Retângulo 477" width="86.03" height="34.994" rx="17.008" transform="translate(87.435 5.207)" fill="none"/>
    </clipPath>
  </defs>
  <g id="pv_textura_atividades" transform="translate(-87.435 -5.207)">
    <g id="Grupo_1314" data-name="Grupo 1314" clip-path="url(#clip-path)">
      <path id="Caminho_744" data-name="Caminho 744" d="M102.214,23.076a4.192,4.192,0,0,0,8.379-.3" fill="none" stroke="#a1d6e3" stroke-linecap="round" stroke-miterlimit="10" stroke-width="2.154"/>
      <path id="Caminho_745" data-name="Caminho 745" d="M89.64,23.076a4.193,4.193,0,0,0,8.38-.3m-12.572-.3a4.193,4.193,0,0,1,8.38.3m16.768-.3a4.193,4.193,0,0,1,8.38.3" fill="none" stroke="#a1d6e3" stroke-linecap="round" stroke-miterlimit="10" stroke-width="2.154"/>
      <path id="Caminho_746" data-name="Caminho 746" d="M98.022,22.475a4.193,4.193,0,0,1,8.38.3" fill="none" stroke="#a1d6e3" stroke-linecap="round" stroke-miterlimit="10" stroke-width="2.154"/>
      <path id="Caminho_747" data-name="Caminho 747" d="M165.083,23.076a4.193,4.193,0,0,0,8.38-.3m-33.528.3a4.193,4.193,0,0,0,8.38-.3m-25.145.3a4.193,4.193,0,0,1-8.38-.3" fill="none" stroke="#a1d6e3" stroke-linecap="round" stroke-miterlimit="10" stroke-width="2.154"/>
      <path id="Caminho_748" data-name="Caminho 748" d="M127.361,23.076a4.193,4.193,0,0,0,8.38-.3m12.576-.3a4.193,4.193,0,0,1,8.38.3" fill="none" stroke="#a1d6e3" stroke-linecap="round" stroke-miterlimit="10" stroke-width="2.154"/>
      <path id="Caminho_749" data-name="Caminho 749" d="M135.743,22.475a4.193,4.193,0,0,1,8.38.3" fill="none" stroke="#a1d6e3" stroke-linecap="round" stroke-miterlimit="10" stroke-width="2.154"/>
      <path id="Caminho_750" data-name="Caminho 750" d="M131.552,22.475a4.193,4.193,0,0,0-8.38.3m37.719.3a4.193,4.193,0,0,1-8.38-.3" fill="none" stroke="#a1d6e3" stroke-linecap="round" stroke-miterlimit="10" stroke-width="2.154"/>
      <path id="Caminho_751" data-name="Caminho 751" d="M169.274,22.475a4.193,4.193,0,0,0-8.38.3" fill="none" stroke="#a1d6e3" stroke-linecap="round" stroke-miterlimit="10" stroke-width="2.154"/>
      <path id="Caminho_752" data-name="Caminho 752" d="M102.214,34.553a4.192,4.192,0,0,1,8.379.3" fill="none" stroke="#a1d6e3" stroke-linecap="round" stroke-miterlimit="10" stroke-width="2.154"/>
      <path id="Caminho_753" data-name="Caminho 753" d="M89.64,34.553a4.193,4.193,0,0,1,8.38.3m-12.572.3a4.193,4.193,0,0,0,8.38-.3m16.768.3a4.193,4.193,0,0,0,8.38-.3" fill="none" stroke="#a1d6e3" stroke-linecap="round" stroke-miterlimit="10" stroke-width="2.154"/>
      <path id="Caminho_754" data-name="Caminho 754" d="M98.022,35.154a4.193,4.193,0,0,0,8.38-.3" fill="none" stroke="#a1d6e3" stroke-linecap="round" stroke-miterlimit="10" stroke-width="2.154"/>
      <path id="Caminho_755" data-name="Caminho 755" d="M165.083,34.555a4.193,4.193,0,0,1,8.38.3m-33.528-.3a4.193,4.193,0,0,1,8.38.3m-25.145-.3a4.193,4.193,0,0,0-8.38.3" fill="none" stroke="#a1d6e3" stroke-linecap="round" stroke-miterlimit="10" stroke-width="2.154"/>
      <path id="Caminho_756" data-name="Caminho 756" d="M127.361,34.553a4.193,4.193,0,0,1,8.38.3m12.576.3a4.193,4.193,0,0,0,8.38-.3" fill="none" stroke="#a1d6e3" stroke-linecap="round" stroke-miterlimit="10" stroke-width="2.154"/>
      <path id="Caminho_757" data-name="Caminho 757" d="M135.743,35.154a4.193,4.193,0,0,0,8.38-.3" fill="none" stroke="#a1d6e3" stroke-linecap="round" stroke-miterlimit="10" stroke-width="2.154"/>
      <path id="Caminho_758" data-name="Caminho 758" d="M131.552,35.154a4.193,4.193,0,0,1-8.38-.3m37.719-.3a4.193,4.193,0,0,0-8.38.3" fill="none" stroke="#a1d6e3" stroke-linecap="round" stroke-miterlimit="10" stroke-width="2.154"/>
      <path id="Caminho_759" data-name="Caminho 759" d="M169.274,35.154a4.193,4.193,0,0,1-8.38-.3" fill="none" stroke="#a1d6e3" stroke-linecap="round" stroke-miterlimit="10" stroke-width="2.154"/>
      <path id="Caminho_760" data-name="Caminho 760" d="M102.214,10.4a4.192,4.192,0,0,1,8.379.3" fill="none" stroke="#a1d6e3" stroke-linecap="round" stroke-miterlimit="10" stroke-width="2.154"/>
      <path id="Caminho_761" data-name="Caminho 761" d="M89.64,10.4a4.193,4.193,0,0,1,8.38.3M85.448,11a4.193,4.193,0,0,0,8.38-.3M110.6,11a4.193,4.193,0,0,0,8.38-.3" fill="none" stroke="#a1d6e3" stroke-linecap="round" stroke-miterlimit="10" stroke-width="2.154"/>
      <path id="Caminho_762" data-name="Caminho 762" d="M98.022,11a4.193,4.193,0,0,0,8.38-.3" fill="none" stroke="#a1d6e3" stroke-linecap="round" stroke-miterlimit="10" stroke-width="2.154"/>
      <path id="Caminho_763" data-name="Caminho 763" d="M165.083,10.4a4.193,4.193,0,0,1,8.38.3m-33.528-.3a4.193,4.193,0,0,1,8.38.3m-25.145-.3a4.193,4.193,0,0,0-8.38.3" fill="none" stroke="#a1d6e3" stroke-linecap="round" stroke-miterlimit="10" stroke-width="2.154"/>
      <path id="Caminho_764" data-name="Caminho 764" d="M127.361,10.4a4.193,4.193,0,0,1,8.38.3m12.576.3a4.193,4.193,0,0,0,8.38-.3" fill="none" stroke="#a1d6e3" stroke-linecap="round" stroke-miterlimit="10" stroke-width="2.154"/>
      <path id="Caminho_765" data-name="Caminho 765" d="M135.743,11a4.193,4.193,0,0,0,8.38-.3" fill="none" stroke="#a1d6e3" stroke-linecap="round" stroke-miterlimit="10" stroke-width="2.154"/>
      <path id="Caminho_766" data-name="Caminho 766" d="M131.552,11a4.193,4.193,0,0,1-8.38-.3m37.719-.3a4.193,4.193,0,0,0-8.38.3" fill="none" stroke="#a1d6e3" stroke-linecap="round" stroke-miterlimit="10" stroke-width="2.154"/>
      <path id="Caminho_767" data-name="Caminho 767" d="M169.274,11a4.193,4.193,0,0,1-8.38-.3" fill="none" stroke="#a1d6e3" stroke-linecap="round" stroke-miterlimit="10" stroke-width="2.154"/>
    </g>
  </g>
</svg>
