<svg xmlns="http://www.w3.org/2000/svg" xmlns:xlink="http://www.w3.org/1999/xlink" width="89.599" height="117.307" viewBox="0 0 89.599 117.307">
  <defs>
    <clipPath id="clip-path">
      <path id="Caminho_187" data-name="Caminho 187" d="M0,0H89.6V-117.307H0Z" fill="none"/>
    </clipPath>
  </defs>
  <g id="pv_texturarosa_1" transform="translate(0 117.307)">
    <g id="Grupo_195" data-name="Grupo 195" clip-path="url(#clip-path)">
      <g id="Grupo_180" data-name="Grupo 180" transform="translate(86.681 -20.221)">
        <path id="Caminho_172" data-name="Caminho 172" d="M0,0A6.4,6.4,0,0,0-8.737-2.382,6.4,6.4,0,0,0-11.12,6.355,6.4,6.4,0,0,0-2.382,8.738,6.4,6.4,0,0,0,0,0ZM-23.521-6.364a6.4,6.4,0,0,0-8.738-2.383A6.4,6.4,0,0,0-34.641-.009,6.4,6.4,0,0,0-25.9,2.373,6.4,6.4,0,0,0-23.521-6.364ZM-2.079-38.428a6.4,6.4,0,0,0-8.738-2.382A6.4,6.4,0,0,0-13.2-32.072,6.4,6.4,0,0,0-4.462-29.69a6.4,6.4,0,0,0,2.383-8.738m-79.6,25.69a6.4,6.4,0,0,0,8.738,2.382,6.4,6.4,0,0,0,2.382-8.738A6.4,6.4,0,0,0-79.3-21.476a6.4,6.4,0,0,0-2.382,8.738M-55.576-27.66a6.4,6.4,0,0,0-8.738-2.382A6.4,6.4,0,0,0-66.7-21.3a6.4,6.4,0,0,0,8.738,2.382A6.4,6.4,0,0,0-55.576-27.66ZM-25.6-44.792a6.4,6.4,0,0,0-8.737-2.382,6.4,6.4,0,0,0-2.382,8.737,6.4,6.4,0,0,0,8.737,2.382A6.4,6.4,0,0,0-25.6-44.792Zm14.988-8.566a6.4,6.4,0,0,0-8.738-2.382A6.4,6.4,0,0,0-21.733-47a6.4,6.4,0,0,0,8.738,2.382A6.4,6.4,0,0,0-10.613-53.358Zm-38.509,2.2a6.4,6.4,0,0,0-8.738-2.382A6.4,6.4,0,0,0-60.242-44.8,6.4,6.4,0,0,0-51.5-42.419,6.4,6.4,0,0,0-49.122-51.157Zm29.975-17.132a6.4,6.4,0,0,0-8.737-2.382,6.4,6.4,0,0,0-2.382,8.737,6.4,6.4,0,0,0,8.737,2.382A6.4,6.4,0,0,0-19.147-68.289Zm14.988-8.566A6.4,6.4,0,0,0-12.9-79.237,6.4,6.4,0,0,0-15.279-70.5a6.4,6.4,0,0,0,8.738,2.382,6.4,6.4,0,0,0,2.382-8.737M-72.643-57.521A6.4,6.4,0,0,0-81.381-59.9a6.4,6.4,0,0,0-2.382,8.737,6.4,6.4,0,0,0,8.737,2.382A6.4,6.4,0,0,0-72.643-57.521Zm14.987-8.566a6.4,6.4,0,0,0-8.737-2.383,6.4,6.4,0,0,0-2.382,8.738,6.4,6.4,0,0,0,8.737,2.382A6.4,6.4,0,0,0-57.656-66.087ZM-27.68-83.22A6.4,6.4,0,0,0-36.418-85.6,6.4,6.4,0,0,0-38.8-76.864a6.4,6.4,0,0,0,8.738,2.382A6.4,6.4,0,0,0-27.68-83.22Z" fill="none" stroke="#ffb28b" stroke-linecap="round" stroke-width="4.145"/>
      </g>
      <g id="Grupo_181" data-name="Grupo 181" transform="translate(71.693 -11.655)">
        <path id="Caminho_173" data-name="Caminho 173" d="M0,0A6.4,6.4,0,0,0-8.737-2.382,6.4,6.4,0,0,0-11.12,6.355,6.405,6.405,0,0,0-2.382,8.738,6.4,6.4,0,0,0,0,0Z" fill="none" stroke="#e2aad2" stroke-linecap="round" stroke-width="4.145"/>
      </g>
      <g id="Grupo_182" data-name="Grupo 182" transform="translate(78.148 -35.152)">
        <path id="Caminho_174" data-name="Caminho 174" d="M0,0A6.4,6.4,0,0,0-8.737-2.382,6.4,6.4,0,0,0-11.12,6.355,6.4,6.4,0,0,0-2.382,8.737,6.4,6.4,0,0,0,0,0Z" fill="none" stroke="#e2aad2" stroke-linecap="round" stroke-width="4.145"/>
      </g>
      <g id="Grupo_183" data-name="Grupo 183" transform="translate(39.639 -32.95)">
        <path id="Caminho_175" data-name="Caminho 175" d="M0,0A6.4,6.4,0,0,0-8.738-2.382,6.4,6.4,0,0,0-11.12,6.355,6.4,6.4,0,0,0-2.382,8.737,6.4,6.4,0,0,0,0,0Z" fill="none" stroke="#e2aad2" stroke-linecap="round" stroke-width="4.145"/>
      </g>
      <g id="Grupo_184" data-name="Grupo 184" transform="translate(22.572 -62.812)">
        <path id="Caminho_176" data-name="Caminho 176" d="M0,0A6.4,6.4,0,0,0-8.738-2.382,6.4,6.4,0,0,0-11.12,6.355,6.4,6.4,0,0,0-2.382,8.737,6.4,6.4,0,0,0,0,0Z" fill="none" stroke="#ffbfb2" stroke-linecap="round" stroke-width="4.145"/>
      </g>
      <g id="Grupo_185" data-name="Grupo 185" transform="translate(52.547 -79.944)">
        <path id="Caminho_177" data-name="Caminho 177" d="M0,0A6.4,6.4,0,0,0-8.737-2.382,6.4,6.4,0,0,0-11.12,6.355,6.4,6.4,0,0,0-2.382,8.737,6.4,6.4,0,0,0,0,0Z" fill="none" stroke="#e2aad2" stroke-linecap="round" stroke-width="4.145"/>
      </g>
      <g id="Grupo_186" data-name="Grupo 186" transform="translate(46.093 -56.447)">
        <path id="Caminho_178" data-name="Caminho 178" d="M0,0A6.4,6.4,0,0,0-8.737-2.382,6.4,6.4,0,0,0-11.12,6.355,6.4,6.4,0,0,0-2.382,8.737,6.4,6.4,0,0,0,0,0Z" fill="none" stroke="#e2aad2" stroke-linecap="round" stroke-width="4.145"/>
      </g>
      <g id="Grupo_187" data-name="Grupo 187" transform="translate(69.614 -50.083)">
        <path id="Caminho_179" data-name="Caminho 179" d="M0,0A6.4,6.4,0,0,0-8.737-2.382,6.4,6.4,0,0,0-11.12,6.355,6.4,6.4,0,0,0-2.382,8.737,6.4,6.4,0,0,0,0,0Z" fill="none" stroke="#ffbfb2" stroke-linecap="round" stroke-width="4.145"/>
      </g>
      <g id="Grupo_188" data-name="Grupo 188" transform="translate(73.989 -112.007)">
        <path id="Caminho_180" data-name="Caminho 180" d="M0,0A6.4,6.4,0,0,0-8.738-2.382,6.4,6.4,0,0,0-11.12,6.355,6.4,6.4,0,0,0-2.382,8.738,6.4,6.4,0,0,0,0,0Z" fill="none" stroke="#fdb0d3" stroke-linecap="round" stroke-width="4.145"/>
      </g>
      <g id="Grupo_189" data-name="Grupo 189" transform="translate(20.492 -101.24)">
        <path id="Caminho_181" data-name="Caminho 181" d="M0,0A6.4,6.4,0,0,0-8.737-2.382,6.4,6.4,0,0,0-11.12,6.355,6.405,6.405,0,0,0-2.382,8.738,6.4,6.4,0,0,0,0,0Z" fill="none" stroke="#fdb0d3" stroke-linecap="round" stroke-width="4.145"/>
      </g>
      <g id="Grupo_190" data-name="Grupo 190" transform="translate(44.013 -94.875)">
        <path id="Caminho_182" data-name="Caminho 182" d="M0,0A6.4,6.4,0,0,0-8.738-2.382,6.4,6.4,0,0,0-11.12,6.355,6.4,6.4,0,0,0-2.382,8.738,6.4,6.4,0,0,0,0,0Z" fill="none" stroke="#fdb0d3" stroke-linecap="round" stroke-width="4.145"/>
      </g>
      <g id="Grupo_191" data-name="Grupo 191" transform="translate(26.742 -112.188)">
        <path id="Caminho_183" data-name="Caminho 183" d="M0,0A6.4,6.4,0,1,0,8.737,2.382,6.4,6.4,0,0,0,0,0" fill="none" stroke="#fdb0d3" stroke-linecap="round" stroke-width="4.145"/>
      </g>
      <g id="Grupo_192" data-name="Grupo 192" transform="translate(54.626 -41.517)">
        <path id="Caminho_184" data-name="Caminho 184" d="M0,0A6.4,6.4,0,0,0-8.737-2.382,6.4,6.4,0,0,0-11.12,6.355,6.4,6.4,0,0,0-2.382,8.737,6.4,6.4,0,0,0,0,0Z" fill="none" stroke="#fdb0d3" stroke-linecap="round" stroke-width="4.145"/>
      </g>
      <g id="Grupo_193" data-name="Grupo 193" transform="translate(48.172 -18.02)">
        <path id="Caminho_185" data-name="Caminho 185" d="M0,0A6.4,6.4,0,0,0-8.738-2.382,6.4,6.4,0,0,0-11.12,6.355,6.4,6.4,0,0,0-2.382,8.737,6.4,6.4,0,0,0,0,0Z" fill="none" stroke="#fdb0d3" stroke-linecap="round" stroke-width="4.145"/>
      </g>
      <g id="Grupo_194" data-name="Grupo 194" transform="translate(24.651 -24.384)">
        <path id="Caminho_186" data-name="Caminho 186" d="M0,0A6.4,6.4,0,0,0-8.737-2.382,6.4,6.4,0,0,0-11.12,6.355,6.4,6.4,0,0,0-2.382,8.737,6.4,6.4,0,0,0,0,0Z" fill="none" stroke="#fdb0d3" stroke-linecap="round" stroke-width="4.145"/>
      </g>
    </g>
  </g>
</svg>
