<svg xmlns="http://www.w3.org/2000/svg" xmlns:xlink="http://www.w3.org/1999/xlink" width="50.387" height="23.362" viewBox="0 0 50.387 23.362">
  <defs>
    <clipPath id="clip-path">
      <path id="Retângulo_448" data-name="Retângulo 448" d="M11.354,0H39.033A11.354,11.354,0,0,1,50.387,11.354v.652A11.356,11.356,0,0,1,39.031,23.362H11.354A11.354,11.354,0,0,1,0,12.008v-.654A11.354,11.354,0,0,1,11.354,0Z" transform="translate(4.347 0.197)" fill="none"/>
    </clipPath>
  </defs>
  <g id="pv_textura_vivendo" transform="translate(-4.347 -0.197)">
    <g id="Grupo_1257" data-name="Grupo 1257" clip-path="url(#clip-path)">
      <path id="Caminho_587" data-name="Caminho 587" d="M44.7,12.2a2.794,2.794,0,0,0,5.585-.2m2.794.2a2.794,2.794,0,0,0,5.585-.2M44.7,3.293a2.794,2.794,0,0,1,5.585.2m2.794-.2a2.794,2.794,0,0,1,5.585.2m-11.171.2a2.794,2.794,0,0,0,5.585-.2M44.7,20.3a2.794,2.794,0,0,1,5.585.2m2.794-.2a2.794,2.794,0,0,1,5.585.2M47.5,20.7a2.794,2.794,0,0,0,5.585-.2M41.833,12.2a2.795,2.795,0,0,1-5.586-.2m-19.554.2a2.794,2.794,0,0,1-5.585-.2m41.975-.2A2.794,2.794,0,0,0,47.5,12m-11.253-.2a2.794,2.794,0,0,0-5.585.2m-11.174.2a2.794,2.794,0,0,0,5.584-.2M13.9,11.8a2.794,2.794,0,0,1,5.585.2m8.381.2a2.794,2.794,0,0,0,5.585-.2m5.588-.2a2.794,2.794,0,0,1,5.585.2M22.28,11.8a2.794,2.794,0,0,1,5.584.2m-16.757-.2a2.794,2.794,0,0,0-5.585.2m-2.795.2A2.794,2.794,0,0,0,8.312,12m33.521-8.7a2.795,2.795,0,0,0-5.586.2m-19.554-.2a2.794,2.794,0,0,0-5.585.2m25.138.2a2.794,2.794,0,0,1-5.585-.2m-11.174-.2a2.794,2.794,0,0,1,5.584.2m-11.171.2a2.794,2.794,0,0,0,5.585-.2m8.381-.2a2.794,2.794,0,0,1,5.585.2m5.588.2a2.794,2.794,0,0,0,5.585-.2m-22.344.2a2.794,2.794,0,0,0,5.584-.2m-16.757.2a2.794,2.794,0,0,1-5.585-.2M5.614.6a2.8,2.8,0,0,1,2.7,2.892M41.833,20.3a2.795,2.795,0,0,0-5.586.2m-19.554-.2a2.794,2.794,0,0,0-5.585.2m25.138.2a2.794,2.794,0,0,1-5.585-.2m-11.174-.2a2.794,2.794,0,0,1,5.584.2M13.9,20.7a2.794,2.794,0,0,0,5.585-.2m8.381-.2a2.794,2.794,0,0,1,5.585.2m5.588.2a2.794,2.794,0,0,0,5.585-.2m-22.344.2a2.794,2.794,0,0,0,5.584-.2m-16.757.2a2.794,2.794,0,0,1-5.585-.2m-2.795-.2a2.794,2.794,0,0,1,5.585.2" fill="none" stroke="#e0488e" stroke-linecap="round" stroke-miterlimit="10" stroke-width="1.2"/>
    </g>
  </g>
</svg>
