<svg xmlns="http://www.w3.org/2000/svg" xmlns:xlink="http://www.w3.org/1999/xlink" width="61.271" height="33.153" viewBox="0 0 61.271 33.153">
  <defs>
    <clipPath id="clip-path">
      <path id="Caminho_730" data-name="Caminho 730" d="M52.493,4.6a16.576,16.576,0,1,0,0,33.153H80.61a16.576,16.576,0,1,0,0-33.153Z" fill="none"/>
    </clipPath>
  </defs>
  <g id="pv_textura_entrevista" transform="translate(-860.916 -197.531)">
    <g id="Grupo_1276" data-name="Grupo 1276" transform="translate(825 192.932)">
      <g id="Grupo_1275" data-name="Grupo 1275" clip-path="url(#clip-path)">
        <path id="Caminho_594" data-name="Caminho 594" d="M35.6,0h0V.882A3.763,3.763,0,0,0,39.36,4.645V3.763A3.763,3.763,0,0,0,35.6,0" fill="#bad7ab"/>
        <path id="Caminho_595" data-name="Caminho 595" d="M43,0h0V.882a3.763,3.763,0,0,1-3.763,3.763V3.763A3.763,3.763,0,0,1,43,0" fill="#bad7ab"/>
        <path id="Caminho_596" data-name="Caminho 596" d="M42.882,0h0V.882a3.763,3.763,0,0,0,3.763,3.763V3.763A3.763,3.763,0,0,0,42.882,0" fill="#bad7ab"/>
        <path id="Caminho_597" data-name="Caminho 597" d="M50.288,0h0V.882a3.763,3.763,0,0,1-3.763,3.763V3.763A3.763,3.763,0,0,1,50.288,0" fill="#bad7ab"/>
        <path id="Caminho_598" data-name="Caminho 598" d="M50.167,0h0V.882A3.763,3.763,0,0,0,53.93,4.645V3.763A3.763,3.763,0,0,0,50.167,0" fill="#bad7ab"/>
        <path id="Caminho_599" data-name="Caminho 599" d="M57.573,0h0V.882A3.763,3.763,0,0,1,53.81,4.645V3.763A3.763,3.763,0,0,1,57.573,0" fill="#bad7ab"/>
        <path id="Caminho_600" data-name="Caminho 600" d="M57.452,0h0V.882a3.763,3.763,0,0,0,3.763,3.763V3.763A3.763,3.763,0,0,0,57.452,0" fill="#bad7ab"/>
        <path id="Caminho_601" data-name="Caminho 601" d="M35.6,9.291h0V8.409A3.763,3.763,0,0,1,39.36,4.646v.882A3.763,3.763,0,0,1,35.6,9.291" fill="#bad7ab"/>
        <path id="Caminho_602" data-name="Caminho 602" d="M43,9.291h0V8.409a3.763,3.763,0,0,0-3.763-3.763v.882A3.763,3.763,0,0,0,43,9.291" fill="#bad7ab"/>
        <path id="Caminho_603" data-name="Caminho 603" d="M42.882,9.291h0V8.409a3.763,3.763,0,0,1,3.763-3.763v.882a3.763,3.763,0,0,1-3.763,3.763" fill="#bad7ab"/>
        <path id="Caminho_604" data-name="Caminho 604" d="M50.288,9.291h0V8.409a3.763,3.763,0,0,0-3.763-3.763v.882a3.763,3.763,0,0,0,3.763,3.763" fill="#bad7ab"/>
        <path id="Caminho_605" data-name="Caminho 605" d="M50.167,9.291h0V8.409A3.763,3.763,0,0,1,53.93,4.646v.882a3.763,3.763,0,0,1-3.763,3.763" fill="#bad7ab"/>
        <path id="Caminho_606" data-name="Caminho 606" d="M57.573,9.291h0V8.409A3.763,3.763,0,0,0,53.81,4.646v.882a3.763,3.763,0,0,0,3.763,3.763" fill="#bad7ab"/>
        <path id="Caminho_607" data-name="Caminho 607" d="M57.452,9.291h0V8.409a3.763,3.763,0,0,1,3.763-3.763v.882a3.763,3.763,0,0,1-3.763,3.763" fill="#bad7ab"/>
        <path id="Caminho_608" data-name="Caminho 608" d="M64.858,0h0V.882A3.763,3.763,0,0,1,61.1,4.645V3.763A3.763,3.763,0,0,1,64.858,0" fill="#bad7ab"/>
        <path id="Caminho_609" data-name="Caminho 609" d="M64.737,0h0V.882A3.763,3.763,0,0,0,68.5,4.645V3.763A3.763,3.763,0,0,0,64.737,0" fill="#bad7ab"/>
        <path id="Caminho_610" data-name="Caminho 610" d="M72.143,0h0V.882A3.763,3.763,0,0,1,68.38,4.645V3.763A3.763,3.763,0,0,1,72.143,0" fill="#bad7ab"/>
        <path id="Caminho_611" data-name="Caminho 611" d="M72.022,0h0V.882a3.763,3.763,0,0,0,3.763,3.763V3.763A3.763,3.763,0,0,0,72.022,0" fill="#bad7ab"/>
        <path id="Caminho_612" data-name="Caminho 612" d="M79.428,0h0V.882a3.763,3.763,0,0,1-3.763,3.763V3.763A3.763,3.763,0,0,1,79.428,0" fill="#bad7ab"/>
        <path id="Caminho_613" data-name="Caminho 613" d="M79.307,0h0V.882A3.763,3.763,0,0,0,83.07,4.645V3.763A3.763,3.763,0,0,0,79.307,0" fill="#bad7ab"/>
        <path id="Caminho_614" data-name="Caminho 614" d="M86.713,0h0V.882A3.763,3.763,0,0,1,82.95,4.645V3.763A3.763,3.763,0,0,1,86.713,0" fill="#bad7ab"/>
        <path id="Caminho_615" data-name="Caminho 615" d="M86.592,0h0V.882a3.763,3.763,0,0,0,3.763,3.763V3.763A3.763,3.763,0,0,0,86.592,0" fill="#bad7ab"/>
        <path id="Caminho_616" data-name="Caminho 616" d="M94,0h0V.882a3.763,3.763,0,0,1-3.763,3.763V3.763A3.763,3.763,0,0,1,94,0" fill="#bad7ab"/>
        <path id="Caminho_617" data-name="Caminho 617" d="M93.877,0h0V.882A3.763,3.763,0,0,0,97.64,4.645V3.763A3.763,3.763,0,0,0,93.877,0" fill="#bad7ab"/>
        <path id="Caminho_618" data-name="Caminho 618" d="M64.858,9.291h0V8.409A3.763,3.763,0,0,0,61.1,4.646v.882a3.763,3.763,0,0,0,3.763,3.763" fill="#bad7ab"/>
        <path id="Caminho_619" data-name="Caminho 619" d="M64.737,9.291h0V8.409A3.763,3.763,0,0,1,68.5,4.646v.882a3.763,3.763,0,0,1-3.763,3.763" fill="#bad7ab"/>
        <path id="Caminho_620" data-name="Caminho 620" d="M72.143,9.291h0V8.409A3.763,3.763,0,0,0,68.38,4.646v.882a3.763,3.763,0,0,0,3.763,3.763" fill="#bad7ab"/>
        <path id="Caminho_621" data-name="Caminho 621" d="M72.022,9.291h0V8.409a3.763,3.763,0,0,1,3.763-3.763v.882a3.763,3.763,0,0,1-3.763,3.763" fill="#bad7ab"/>
        <path id="Caminho_622" data-name="Caminho 622" d="M79.428,9.291h0V8.409a3.763,3.763,0,0,0-3.763-3.763v.882a3.763,3.763,0,0,0,3.763,3.763" fill="#bad7ab"/>
        <path id="Caminho_623" data-name="Caminho 623" d="M79.307,9.291h0V8.409A3.763,3.763,0,0,1,83.07,4.646v.882a3.763,3.763,0,0,1-3.763,3.763" fill="#bad7ab"/>
        <path id="Caminho_624" data-name="Caminho 624" d="M86.713,9.291h0V8.409A3.763,3.763,0,0,0,82.95,4.646v.882a3.763,3.763,0,0,0,3.763,3.763" fill="#bad7ab"/>
        <path id="Caminho_625" data-name="Caminho 625" d="M86.592,9.291h0V8.409a3.763,3.763,0,0,1,3.763-3.763v.882a3.763,3.763,0,0,1-3.763,3.763" fill="#bad7ab"/>
        <path id="Caminho_626" data-name="Caminho 626" d="M94,9.291h0V8.409a3.763,3.763,0,0,0-3.763-3.763v.882A3.763,3.763,0,0,0,94,9.291" fill="#bad7ab"/>
        <path id="Caminho_627" data-name="Caminho 627" d="M93.877,9.291h0V8.409A3.763,3.763,0,0,1,97.64,4.646v.882a3.763,3.763,0,0,1-3.763,3.763" fill="#bad7ab"/>
        <path id="Caminho_628" data-name="Caminho 628" d="M35.6,9.291h0v.882a3.763,3.763,0,0,0,3.763,3.763v-.882A3.763,3.763,0,0,0,35.6,9.291" fill="#bad7ab"/>
        <path id="Caminho_629" data-name="Caminho 629" d="M43,9.291h0v.882a3.763,3.763,0,0,1-3.763,3.763v-.882A3.763,3.763,0,0,1,43,9.291" fill="#bad7ab"/>
        <path id="Caminho_630" data-name="Caminho 630" d="M42.882,9.291h0v.882a3.763,3.763,0,0,0,3.763,3.763v-.882a3.763,3.763,0,0,0-3.763-3.763" fill="#bad7ab"/>
        <path id="Caminho_631" data-name="Caminho 631" d="M50.288,9.291h0v.882a3.763,3.763,0,0,1-3.763,3.763v-.882a3.763,3.763,0,0,1,3.763-3.763" fill="#bad7ab"/>
        <path id="Caminho_632" data-name="Caminho 632" d="M50.167,9.291h0v.882a3.763,3.763,0,0,0,3.763,3.763v-.882a3.763,3.763,0,0,0-3.763-3.763" fill="#bad7ab"/>
        <path id="Caminho_633" data-name="Caminho 633" d="M57.573,9.291h0v.882a3.763,3.763,0,0,1-3.763,3.763v-.882a3.763,3.763,0,0,1,3.763-3.763" fill="#bad7ab"/>
        <path id="Caminho_634" data-name="Caminho 634" d="M57.452,9.291h0v.882a3.763,3.763,0,0,0,3.763,3.763v-.882a3.763,3.763,0,0,0-3.763-3.763" fill="#bad7ab"/>
        <path id="Caminho_635" data-name="Caminho 635" d="M35.6,18.582h0V17.7a3.763,3.763,0,0,1,3.763-3.763v.882A3.763,3.763,0,0,1,35.6,18.582" fill="#bad7ab"/>
        <path id="Caminho_636" data-name="Caminho 636" d="M43,18.582h0V17.7a3.763,3.763,0,0,0-3.763-3.763v.882A3.763,3.763,0,0,0,43,18.582" fill="#bad7ab"/>
        <path id="Caminho_637" data-name="Caminho 637" d="M42.882,18.582h0V17.7a3.763,3.763,0,0,1,3.763-3.763v.882a3.763,3.763,0,0,1-3.763,3.763" fill="#bad7ab"/>
        <path id="Caminho_638" data-name="Caminho 638" d="M50.288,18.582h0V17.7a3.763,3.763,0,0,0-3.763-3.763v.882a3.763,3.763,0,0,0,3.763,3.763" fill="#bad7ab"/>
        <path id="Caminho_639" data-name="Caminho 639" d="M50.167,18.582h0V17.7a3.763,3.763,0,0,1,3.763-3.763v.882a3.763,3.763,0,0,1-3.763,3.763" fill="#bad7ab"/>
        <path id="Caminho_640" data-name="Caminho 640" d="M57.573,18.582h0V17.7a3.763,3.763,0,0,0-3.763-3.763v.882a3.763,3.763,0,0,0,3.763,3.763" fill="#bad7ab"/>
        <path id="Caminho_641" data-name="Caminho 641" d="M57.452,18.582h0V17.7a3.763,3.763,0,0,1,3.763-3.763v.882a3.763,3.763,0,0,1-3.763,3.763" fill="#bad7ab"/>
        <path id="Caminho_642" data-name="Caminho 642" d="M35.6,18.582h0v.882a3.763,3.763,0,0,0,3.763,3.763v-.882A3.763,3.763,0,0,0,35.6,18.582" fill="#bad7ab"/>
        <path id="Caminho_643" data-name="Caminho 643" d="M43,18.582h0v.882a3.763,3.763,0,0,1-3.763,3.763v-.882A3.763,3.763,0,0,1,43,18.582" fill="#bad7ab"/>
        <path id="Caminho_644" data-name="Caminho 644" d="M42.882,18.582h0v.882a3.763,3.763,0,0,0,3.763,3.763v-.882a3.763,3.763,0,0,0-3.763-3.763" fill="#bad7ab"/>
        <path id="Caminho_645" data-name="Caminho 645" d="M50.288,18.582h0v.882a3.763,3.763,0,0,1-3.763,3.763v-.882a3.763,3.763,0,0,1,3.763-3.763" fill="#bad7ab"/>
        <path id="Caminho_646" data-name="Caminho 646" d="M50.167,18.582h0v.882a3.763,3.763,0,0,0,3.763,3.763v-.882a3.763,3.763,0,0,0-3.763-3.763" fill="#bad7ab"/>
        <path id="Caminho_647" data-name="Caminho 647" d="M57.573,18.582h0v.882a3.763,3.763,0,0,1-3.763,3.763v-.882a3.763,3.763,0,0,1,3.763-3.763" fill="#bad7ab"/>
        <path id="Caminho_648" data-name="Caminho 648" d="M57.452,18.582h0v.882a3.763,3.763,0,0,0,3.763,3.763v-.882a3.763,3.763,0,0,0-3.763-3.763" fill="#bad7ab"/>
        <path id="Caminho_649" data-name="Caminho 649" d="M35.6,27.873h0v-.882a3.763,3.763,0,0,1,3.763-3.763v.882A3.763,3.763,0,0,1,35.6,27.873" fill="#bad7ab"/>
        <path id="Caminho_650" data-name="Caminho 650" d="M43,27.873h0v-.882a3.763,3.763,0,0,0-3.763-3.763v.882A3.763,3.763,0,0,0,43,27.873" fill="#bad7ab"/>
        <path id="Caminho_651" data-name="Caminho 651" d="M42.882,27.873h0v-.882a3.763,3.763,0,0,1,3.763-3.763v.882a3.763,3.763,0,0,1-3.763,3.763" fill="#bad7ab"/>
        <path id="Caminho_652" data-name="Caminho 652" d="M50.288,27.873h0v-.882a3.763,3.763,0,0,0-3.763-3.763v.882a3.763,3.763,0,0,0,3.763,3.763" fill="#bad7ab"/>
        <path id="Caminho_653" data-name="Caminho 653" d="M50.167,27.873h0v-.882a3.763,3.763,0,0,1,3.763-3.763v.882a3.763,3.763,0,0,1-3.763,3.763" fill="#bad7ab"/>
        <path id="Caminho_654" data-name="Caminho 654" d="M57.573,27.873h0v-.882a3.763,3.763,0,0,0-3.763-3.763v.882a3.763,3.763,0,0,0,3.763,3.763" fill="#bad7ab"/>
        <path id="Caminho_655" data-name="Caminho 655" d="M57.452,27.873h0v-.882a3.763,3.763,0,0,1,3.763-3.763v.882a3.763,3.763,0,0,1-3.763,3.763" fill="#bad7ab"/>
        <path id="Caminho_656" data-name="Caminho 656" d="M64.858,9.291h0v.882A3.763,3.763,0,0,1,61.1,13.936v-.882a3.763,3.763,0,0,1,3.763-3.763" fill="#bad7ab"/>
        <path id="Caminho_657" data-name="Caminho 657" d="M64.737,9.291h0v.882A3.763,3.763,0,0,0,68.5,13.936v-.882a3.763,3.763,0,0,0-3.763-3.763" fill="#bad7ab"/>
        <path id="Caminho_658" data-name="Caminho 658" d="M72.143,9.291h0v.882a3.763,3.763,0,0,1-3.763,3.763v-.882a3.763,3.763,0,0,1,3.763-3.763" fill="#bad7ab"/>
        <path id="Caminho_659" data-name="Caminho 659" d="M72.022,9.291h0v.882a3.763,3.763,0,0,0,3.763,3.763v-.882a3.763,3.763,0,0,0-3.763-3.763" fill="#bad7ab"/>
        <path id="Caminho_660" data-name="Caminho 660" d="M79.428,9.291h0v.882a3.763,3.763,0,0,1-3.763,3.763v-.882a3.763,3.763,0,0,1,3.763-3.763" fill="#bad7ab"/>
        <path id="Caminho_661" data-name="Caminho 661" d="M79.307,9.291h0v.882a3.763,3.763,0,0,0,3.763,3.763v-.882a3.763,3.763,0,0,0-3.763-3.763" fill="#bad7ab"/>
        <path id="Caminho_662" data-name="Caminho 662" d="M86.713,9.291h0v.882a3.763,3.763,0,0,1-3.763,3.763v-.882a3.763,3.763,0,0,1,3.763-3.763" fill="#bad7ab"/>
        <path id="Caminho_663" data-name="Caminho 663" d="M86.592,9.291h0v.882a3.763,3.763,0,0,0,3.763,3.763v-.882a3.763,3.763,0,0,0-3.763-3.763" fill="#bad7ab"/>
        <path id="Caminho_664" data-name="Caminho 664" d="M94,9.291h0v.882a3.763,3.763,0,0,1-3.763,3.763v-.882A3.763,3.763,0,0,1,94,9.291" fill="#bad7ab"/>
        <path id="Caminho_665" data-name="Caminho 665" d="M93.877,9.291h0v.882a3.763,3.763,0,0,0,3.763,3.763v-.882a3.763,3.763,0,0,0-3.763-3.763" fill="#bad7ab"/>
        <path id="Caminho_666" data-name="Caminho 666" d="M64.858,18.582h0V17.7A3.763,3.763,0,0,0,61.1,13.937v.882a3.763,3.763,0,0,0,3.763,3.763" fill="#bad7ab"/>
        <path id="Caminho_667" data-name="Caminho 667" d="M64.737,18.582h0V17.7A3.763,3.763,0,0,1,68.5,13.937v.882a3.763,3.763,0,0,1-3.763,3.763" fill="#bad7ab"/>
        <path id="Caminho_668" data-name="Caminho 668" d="M72.143,18.582h0V17.7a3.763,3.763,0,0,0-3.763-3.763v.882a3.763,3.763,0,0,0,3.763,3.763" fill="#bad7ab"/>
        <path id="Caminho_669" data-name="Caminho 669" d="M72.022,18.582h0V17.7a3.763,3.763,0,0,1,3.763-3.763v.882a3.763,3.763,0,0,1-3.763,3.763" fill="#bad7ab"/>
        <path id="Caminho_670" data-name="Caminho 670" d="M79.428,18.582h0V17.7a3.763,3.763,0,0,0-3.763-3.763v.882a3.763,3.763,0,0,0,3.763,3.763" fill="#bad7ab"/>
        <path id="Caminho_671" data-name="Caminho 671" d="M79.307,18.582h0V17.7a3.763,3.763,0,0,1,3.763-3.763v.882a3.763,3.763,0,0,1-3.763,3.763" fill="#bad7ab"/>
        <path id="Caminho_672" data-name="Caminho 672" d="M86.713,18.582h0V17.7a3.763,3.763,0,0,0-3.763-3.763v.882a3.763,3.763,0,0,0,3.763,3.763" fill="#bad7ab"/>
        <path id="Caminho_673" data-name="Caminho 673" d="M86.592,18.582h0V17.7a3.763,3.763,0,0,1,3.763-3.763v.882a3.763,3.763,0,0,1-3.763,3.763" fill="#bad7ab"/>
        <path id="Caminho_674" data-name="Caminho 674" d="M94,18.582h0V17.7a3.763,3.763,0,0,0-3.763-3.763v.882A3.763,3.763,0,0,0,94,18.582" fill="#bad7ab"/>
        <path id="Caminho_675" data-name="Caminho 675" d="M93.877,18.582h0V17.7a3.763,3.763,0,0,1,3.763-3.763v.882a3.763,3.763,0,0,1-3.763,3.763" fill="#bad7ab"/>
        <path id="Caminho_676" data-name="Caminho 676" d="M64.858,18.582h0v.882A3.763,3.763,0,0,1,61.1,23.227v-.882a3.763,3.763,0,0,1,3.763-3.763" fill="#bad7ab"/>
        <path id="Caminho_677" data-name="Caminho 677" d="M64.737,18.582h0v.882A3.763,3.763,0,0,0,68.5,23.227v-.882a3.763,3.763,0,0,0-3.763-3.763" fill="#bad7ab"/>
        <path id="Caminho_678" data-name="Caminho 678" d="M72.143,18.582h0v.882a3.763,3.763,0,0,1-3.763,3.763v-.882a3.763,3.763,0,0,1,3.763-3.763" fill="#bad7ab"/>
        <path id="Caminho_679" data-name="Caminho 679" d="M72.022,18.582h0v.882a3.763,3.763,0,0,0,3.763,3.763v-.882a3.763,3.763,0,0,0-3.763-3.763" fill="#bad7ab"/>
        <path id="Caminho_680" data-name="Caminho 680" d="M79.428,18.582h0v.882a3.763,3.763,0,0,1-3.763,3.763v-.882a3.763,3.763,0,0,1,3.763-3.763" fill="#bad7ab"/>
        <path id="Caminho_681" data-name="Caminho 681" d="M79.307,18.582h0v.882a3.763,3.763,0,0,0,3.763,3.763v-.882a3.763,3.763,0,0,0-3.763-3.763" fill="#bad7ab"/>
        <path id="Caminho_682" data-name="Caminho 682" d="M86.713,18.582h0v.882a3.763,3.763,0,0,1-3.763,3.763v-.882a3.763,3.763,0,0,1,3.763-3.763" fill="#bad7ab"/>
        <path id="Caminho_683" data-name="Caminho 683" d="M86.592,18.582h0v.882a3.763,3.763,0,0,0,3.763,3.763v-.882a3.763,3.763,0,0,0-3.763-3.763" fill="#bad7ab"/>
        <path id="Caminho_684" data-name="Caminho 684" d="M94,18.582h0v.882a3.763,3.763,0,0,1-3.763,3.763v-.882A3.763,3.763,0,0,1,94,18.582" fill="#bad7ab"/>
        <path id="Caminho_685" data-name="Caminho 685" d="M93.877,18.582h0v.882a3.763,3.763,0,0,0,3.763,3.763v-.882a3.763,3.763,0,0,0-3.763-3.763" fill="#bad7ab"/>
        <path id="Caminho_686" data-name="Caminho 686" d="M64.858,27.873h0v-.882A3.763,3.763,0,0,0,61.1,23.228v.882a3.763,3.763,0,0,0,3.763,3.763" fill="#bad7ab"/>
        <path id="Caminho_687" data-name="Caminho 687" d="M64.737,27.873h0v-.882A3.763,3.763,0,0,1,68.5,23.228v.882a3.763,3.763,0,0,1-3.763,3.763" fill="#bad7ab"/>
        <path id="Caminho_688" data-name="Caminho 688" d="M72.143,27.873h0v-.882a3.763,3.763,0,0,0-3.763-3.763v.882a3.763,3.763,0,0,0,3.763,3.763" fill="#bad7ab"/>
        <path id="Caminho_689" data-name="Caminho 689" d="M72.022,27.873h0v-.882a3.763,3.763,0,0,1,3.763-3.763v.882a3.763,3.763,0,0,1-3.763,3.763" fill="#bad7ab"/>
        <path id="Caminho_690" data-name="Caminho 690" d="M79.428,27.873h0v-.882a3.763,3.763,0,0,0-3.763-3.763v.882a3.763,3.763,0,0,0,3.763,3.763" fill="#bad7ab"/>
        <path id="Caminho_691" data-name="Caminho 691" d="M79.307,27.873h0v-.882a3.763,3.763,0,0,1,3.763-3.763v.882a3.763,3.763,0,0,1-3.763,3.763" fill="#bad7ab"/>
        <path id="Caminho_692" data-name="Caminho 692" d="M86.713,27.873h0v-.882a3.763,3.763,0,0,0-3.763-3.763v.882a3.763,3.763,0,0,0,3.763,3.763" fill="#bad7ab"/>
        <path id="Caminho_693" data-name="Caminho 693" d="M86.592,27.873h0v-.882a3.763,3.763,0,0,1,3.763-3.763v.882a3.763,3.763,0,0,1-3.763,3.763" fill="#bad7ab"/>
        <path id="Caminho_694" data-name="Caminho 694" d="M94,27.873h0v-.882a3.763,3.763,0,0,0-3.763-3.763v.882A3.763,3.763,0,0,0,94,27.873" fill="#bad7ab"/>
        <path id="Caminho_695" data-name="Caminho 695" d="M93.877,27.873h0v-.882a3.763,3.763,0,0,1,3.763-3.763v.882a3.763,3.763,0,0,1-3.763,3.763" fill="#bad7ab"/>
        <path id="Caminho_696" data-name="Caminho 696" d="M35.6,27.873h0v.882a3.763,3.763,0,0,0,3.763,3.763v-.882A3.763,3.763,0,0,0,35.6,27.873" fill="#bad7ab"/>
        <path id="Caminho_697" data-name="Caminho 697" d="M43,27.873h0v.882a3.763,3.763,0,0,1-3.763,3.763v-.882A3.763,3.763,0,0,1,43,27.873" fill="#bad7ab"/>
        <path id="Caminho_698" data-name="Caminho 698" d="M42.882,27.873h0v.882a3.763,3.763,0,0,0,3.763,3.763v-.882a3.763,3.763,0,0,0-3.763-3.763" fill="#bad7ab"/>
        <path id="Caminho_699" data-name="Caminho 699" d="M50.288,27.873h0v.882a3.763,3.763,0,0,1-3.763,3.763v-.882a3.763,3.763,0,0,1,3.763-3.763" fill="#bad7ab"/>
        <path id="Caminho_700" data-name="Caminho 700" d="M50.167,27.873h0v.882a3.763,3.763,0,0,0,3.763,3.763v-.882a3.763,3.763,0,0,0-3.763-3.763" fill="#bad7ab"/>
        <path id="Caminho_701" data-name="Caminho 701" d="M57.573,27.873h0v.882a3.763,3.763,0,0,1-3.763,3.763v-.882a3.763,3.763,0,0,1,3.763-3.763" fill="#bad7ab"/>
        <path id="Caminho_702" data-name="Caminho 702" d="M57.452,27.873h0v.882a3.763,3.763,0,0,0,3.763,3.763v-.882a3.763,3.763,0,0,0-3.763-3.763" fill="#bad7ab"/>
        <path id="Caminho_703" data-name="Caminho 703" d="M35.6,37.164h0v-.882a3.763,3.763,0,0,1,3.763-3.763V33.4A3.763,3.763,0,0,1,35.6,37.164" fill="#bad7ab"/>
        <path id="Caminho_704" data-name="Caminho 704" d="M43,37.164h0v-.882a3.763,3.763,0,0,0-3.763-3.763V33.4A3.763,3.763,0,0,0,43,37.164" fill="#bad7ab"/>
        <path id="Caminho_705" data-name="Caminho 705" d="M42.882,37.164h0v-.882a3.763,3.763,0,0,1,3.763-3.763V33.4a3.763,3.763,0,0,1-3.763,3.763" fill="#bad7ab"/>
        <path id="Caminho_706" data-name="Caminho 706" d="M50.288,37.164h0v-.882a3.763,3.763,0,0,0-3.763-3.763V33.4a3.763,3.763,0,0,0,3.763,3.763" fill="#bad7ab"/>
        <path id="Caminho_707" data-name="Caminho 707" d="M50.167,37.164h0v-.882a3.763,3.763,0,0,1,3.763-3.763V33.4a3.763,3.763,0,0,1-3.763,3.763" fill="#bad7ab"/>
        <path id="Caminho_708" data-name="Caminho 708" d="M57.573,37.164h0v-.882a3.763,3.763,0,0,0-3.763-3.763V33.4a3.763,3.763,0,0,0,3.763,3.763" fill="#bad7ab"/>
        <path id="Caminho_709" data-name="Caminho 709" d="M57.452,37.164h0v-.882a3.763,3.763,0,0,1,3.763-3.763V33.4a3.763,3.763,0,0,1-3.763,3.763" fill="#bad7ab"/>
        <path id="Caminho_710" data-name="Caminho 710" d="M64.858,27.873h0v.882A3.763,3.763,0,0,1,61.1,32.518v-.882a3.763,3.763,0,0,1,3.763-3.763" fill="#bad7ab"/>
        <path id="Caminho_711" data-name="Caminho 711" d="M64.737,27.873h0v.882A3.763,3.763,0,0,0,68.5,32.518v-.882a3.763,3.763,0,0,0-3.763-3.763" fill="#bad7ab"/>
        <path id="Caminho_712" data-name="Caminho 712" d="M72.143,27.873h0v.882a3.763,3.763,0,0,1-3.763,3.763v-.882a3.763,3.763,0,0,1,3.763-3.763" fill="#bad7ab"/>
        <path id="Caminho_713" data-name="Caminho 713" d="M72.022,27.873h0v.882a3.763,3.763,0,0,0,3.763,3.763v-.882a3.763,3.763,0,0,0-3.763-3.763" fill="#bad7ab"/>
        <path id="Caminho_714" data-name="Caminho 714" d="M79.428,27.873h0v.882a3.763,3.763,0,0,1-3.763,3.763v-.882a3.763,3.763,0,0,1,3.763-3.763" fill="#bad7ab"/>
        <path id="Caminho_715" data-name="Caminho 715" d="M79.307,27.873h0v.882a3.763,3.763,0,0,0,3.763,3.763v-.882a3.763,3.763,0,0,0-3.763-3.763" fill="#bad7ab"/>
        <path id="Caminho_716" data-name="Caminho 716" d="M86.713,27.873h0v.882a3.763,3.763,0,0,1-3.763,3.763v-.882a3.763,3.763,0,0,1,3.763-3.763" fill="#bad7ab"/>
        <path id="Caminho_717" data-name="Caminho 717" d="M86.592,27.873h0v.882a3.763,3.763,0,0,0,3.763,3.763v-.882a3.763,3.763,0,0,0-3.763-3.763" fill="#bad7ab"/>
        <path id="Caminho_718" data-name="Caminho 718" d="M94,27.873h0v.882a3.763,3.763,0,0,1-3.763,3.763v-.882A3.763,3.763,0,0,1,94,27.873" fill="#bad7ab"/>
        <path id="Caminho_719" data-name="Caminho 719" d="M93.877,27.873h0v.882a3.763,3.763,0,0,0,3.763,3.763v-.882a3.763,3.763,0,0,0-3.763-3.763" fill="#bad7ab"/>
        <path id="Caminho_720" data-name="Caminho 720" d="M64.858,37.164h0v-.882A3.763,3.763,0,0,0,61.1,32.519V33.4a3.763,3.763,0,0,0,3.763,3.763" fill="#bad7ab"/>
        <path id="Caminho_721" data-name="Caminho 721" d="M64.737,37.164h0v-.882A3.763,3.763,0,0,1,68.5,32.519V33.4a3.763,3.763,0,0,1-3.763,3.763" fill="#bad7ab"/>
        <path id="Caminho_722" data-name="Caminho 722" d="M72.143,37.164h0v-.882a3.763,3.763,0,0,0-3.763-3.763V33.4a3.763,3.763,0,0,0,3.763,3.763" fill="#bad7ab"/>
        <path id="Caminho_723" data-name="Caminho 723" d="M72.022,37.164h0v-.882a3.763,3.763,0,0,1,3.763-3.763V33.4a3.763,3.763,0,0,1-3.763,3.763" fill="#bad7ab"/>
        <path id="Caminho_724" data-name="Caminho 724" d="M79.428,37.164h0v-.882a3.763,3.763,0,0,0-3.763-3.763V33.4a3.763,3.763,0,0,0,3.763,3.763" fill="#bad7ab"/>
        <path id="Caminho_725" data-name="Caminho 725" d="M79.307,37.164h0v-.882a3.763,3.763,0,0,1,3.763-3.763V33.4a3.763,3.763,0,0,1-3.763,3.763" fill="#bad7ab"/>
        <path id="Caminho_726" data-name="Caminho 726" d="M86.713,37.164h0v-.882a3.763,3.763,0,0,0-3.763-3.763V33.4a3.763,3.763,0,0,0,3.763,3.763" fill="#bad7ab"/>
        <path id="Caminho_727" data-name="Caminho 727" d="M86.592,37.164h0v-.882a3.763,3.763,0,0,1,3.763-3.763V33.4a3.763,3.763,0,0,1-3.763,3.763" fill="#bad7ab"/>
        <path id="Caminho_728" data-name="Caminho 728" d="M94,37.164h0v-.882a3.763,3.763,0,0,0-3.763-3.763V33.4A3.763,3.763,0,0,0,94,37.164" fill="#bad7ab"/>
        <path id="Caminho_729" data-name="Caminho 729" d="M93.877,37.164h0v-.882a3.763,3.763,0,0,1,3.763-3.763V33.4a3.763,3.763,0,0,1-3.763,3.763" fill="#bad7ab"/>
      </g>
    </g>
  </g>
</svg>
